M48
; DRILL file {KiCad 8.0.8} date 2025-03-04T12:46:42-0700
; FORMAT={-:-/ absolute / metric / decimal}
; #@! TF.CreationDate,2025-03-04T12:46:42-07:00
; #@! TF.GenerationSoftware,Kicad,Pcbnew,8.0.8
; #@! TF.FileFunction,Plated,1,2,PTH
FMAT,2
METRIC
; #@! TA.AperFunction,Plated,PTH,ViaDrill
T1C0.300
; #@! TA.AperFunction,Plated,PTH,ComponentDrill
T2C0.800
; #@! TA.AperFunction,Plated,PTH,ComponentDrill
T3C1.000
%
G90
G05
T1
X35.165Y-89.155
X35.5Y-157.0
X36.559Y-154.685
X37.165Y-156.0
X38.552Y-42.994
X38.825Y-155.725
X41.369Y-157.0
X46.42Y-89.326
X49.678Y-79.193
X50.812Y-130.125
X53.76Y-147.29
X54.582Y-146.555
X55.836Y-70.478
X55.839Y-73.225
X55.847Y-75.125
X56.349Y-61.18
X56.405Y-122.421
X56.83Y-89.834
X56.958Y-63.765
X56.96Y-91.686
X56.972Y-74.346
X56.997Y-130.125
X57.01Y-81.718
X57.119Y-72.617
X57.283Y-123.061
X57.315Y-77.755
X57.396Y-76.835
X57.407Y-120.295
X57.44Y-123.889
X57.505Y-82.397
X57.508Y-75.915
X57.535Y-89.284
X58.861Y-120.035
X58.87Y-107.278
X58.877Y-73.371
X58.882Y-74.423
X58.933Y-117.868
X59.146Y-76.52
X59.344Y-75.126
X59.681Y-106.504
X59.681Y-111.883
X59.713Y-87.272
X60.038Y-79.478
X60.628Y-77.132
X60.787Y-139.69
X62.228Y-72.532
X63.348Y-42.994
X66.46Y-88.617
X68.729Y-147.29
X68.85Y-68.626
X69.406Y-145.432
X70.12Y-147.29
X70.92Y-146.678
X71.48Y-87.122
X71.481Y-105.899
X71.879Y-146.713
X73.984Y-144.756
X74.098Y-68.639
X75.675Y-47.289
X76.47Y-66.646
X78.401Y-99.912
X81.511Y-64.209
X82.651Y-87.941
X83.18Y-63.248
X83.85Y-139.69
X84.106Y-42.964
X84.106Y-82.454
X85.105Y-117.868
X85.707Y-84.116
X86.313Y-122.835
X89.189Y-147.936
X89.332Y-126.846
X89.332Y-145.837
X91.543Y-76.377
X91.547Y-101.722
X91.557Y-69.377
X91.564Y-90.534
X91.566Y-56.378
X91.586Y-141.174
X91.586Y-147.917
X91.593Y-74.423
X91.725Y-93.926
X91.925Y-49.551
X91.962Y-52.01
X91.968Y-63.248
X91.973Y-109.493
X92.059Y-58.104
X92.121Y-73.371
X92.152Y-78.361
X92.158Y-80.769
X92.172Y-51.165
X92.177Y-72.532
X92.375Y-77.132
X92.48Y-84.069
X92.519Y-58.95
X92.524Y-90.359
X92.538Y-93.072
X92.569Y-71.223
X92.583Y-123.954
X92.947Y-117.868
X92.971Y-111.883
X92.986Y-79.357
X93.764Y-106.148
X93.881Y-46.577
X94.242Y-58.561
X94.336Y-78.374
X94.351Y-81.28
X94.352Y-120.371
X94.529Y-87.272
X94.578Y-57.116
X94.86Y-121.677
X94.903Y-67.278
X94.962Y-78.883
X95.131Y-86.233
X95.374Y-57.72
X95.427Y-107.277
X95.505Y-66.132
X95.664Y-95.966
X95.666Y-76.491
X95.955Y-78.019
X96.106Y-148.574
X96.133Y-87.12
X97.121Y-100.93
X97.245Y-77.105
X97.481Y-43.905
X97.681Y-126.846
X97.939Y-42.964
X98.204Y-130.689
X98.87Y-45.634
X99.48Y-149.96
X99.569Y-128.621
X99.574Y-147.155
X100.75Y-150.576
X101.142Y-128.62
X101.251Y-139.69
X101.308Y-78.019
X102.02Y-149.97
X102.187Y-136.547
X103.211Y-135.672
X103.692Y-68.639
X103.726Y-138.096
X103.945Y-108.635
X103.983Y-139.034
X104.313Y-44.568
X105.12Y-64.766
X105.276Y-137.732
X105.35Y-148.615
X106.116Y-141.733
X106.429Y-128.639
X106.43Y-151.178
X106.492Y-148.628
X108.252Y-148.615
X108.983Y-147.013
X110.156Y-148.616
X110.455Y-48.637
X113.318Y-148.218
X114.38Y-66.132
X116.003Y-95.966
X116.384Y-145.141
X117.624Y-64.766
X117.624Y-101.532
X117.656Y-128.564
X118.226Y-75.098
X118.433Y-129.319
X118.88Y-144.661
X119.23Y-54.222
X119.41Y-78.992
X120.615Y-102.835
X120.731Y-55.919
X120.765Y-124.62
X121.45Y-77.105
X121.864Y-95.36
X122.24Y-102.905
X122.367Y-153.717
X122.414Y-55.02
X123.188Y-72.978
X123.598Y-123.973
X123.799Y-74.496
X123.884Y-95.033
X124.261Y-52.295
X124.805Y-129.274
X125.218Y-70.784
X125.275Y-66.977
X125.291Y-68.277
X125.361Y-153.352
X125.417Y-147.011
X126.19Y-57.116
X126.463Y-147.798
X126.499Y-76.32
X126.81Y-103.901
X127.002Y-71.558
X127.051Y-120.371
X127.498Y-76.432
X127.527Y-49.259
X127.537Y-75.098
X127.9Y-153.02
X128.867Y-121.089
X128.882Y-111.967
X128.891Y-100.968
X128.906Y-97.086
X128.946Y-109.235
X128.971Y-68.631
X129.007Y-148.182
X129.105Y-52.029
X129.105Y-98.452
X129.26Y-87.276
X129.44Y-94.465
X129.441Y-96.033
X129.749Y-122.7
X129.857Y-61.716
X129.978Y-60.904
X130.062Y-80.78
X130.63Y-121.721
X130.767Y-127.286
X131.173Y-148.609
X131.353Y-119.235
X131.726Y-120.458
X131.904Y-87.289
X136.168Y-108.625
X136.212Y-128.625
X136.212Y-147.051
X137.333Y-147.653
X140.19Y-108.82
X141.549Y-127.293
X143.93Y-126.573
X146.874Y-106.456
X147.341Y-97.086
X148.843Y-87.839
X149.296Y-67.347
X152.14Y-69.574
X152.14Y-133.001
X152.335Y-51.789
X152.811Y-81.902
X152.957Y-94.465
X157.515Y-81.487
X158.288Y-121.649
X159.085Y-45.033
X159.2Y-46.432
X159.546Y-131.574
X159.58Y-81.084
X161.371Y-82.835
X161.449Y-80.474
X162.925Y-122.38
X163.484Y-85.244
X166.021Y-48.582
T2
X37.42Y-62.515
X37.42Y-65.055
X37.42Y-67.595
X37.42Y-70.135
X37.42Y-72.675
X37.42Y-75.215
X37.42Y-77.755
X37.42Y-80.295
X37.42Y-82.835
X37.42Y-85.375
X37.42Y-87.915
X37.42Y-90.455
X37.42Y-102.515
X37.42Y-105.055
X37.42Y-107.595
X37.42Y-110.135
X37.42Y-112.675
X37.42Y-115.215
X37.42Y-117.755
X37.42Y-120.295
X37.42Y-122.835
X37.42Y-125.375
X37.42Y-127.915
X37.42Y-130.455
X40.04Y-50.455
X40.04Y-140.455
X42.54Y-50.455
X42.54Y-140.455
X45.04Y-62.515
X45.04Y-65.055
X45.04Y-67.595
X45.04Y-70.135
X45.04Y-72.675
X45.04Y-75.215
X45.04Y-77.755
X45.04Y-80.295
X45.04Y-82.835
X45.04Y-85.375
X45.04Y-87.915
X45.04Y-90.455
X45.04Y-102.515
X45.04Y-105.055
X45.04Y-107.595
X45.04Y-110.135
X45.04Y-112.675
X45.04Y-115.215
X45.04Y-117.755
X45.04Y-120.295
X45.04Y-122.835
X45.04Y-125.375
X45.04Y-127.915
X45.04Y-130.455
X57.04Y-45.455
X57.04Y-47.955
X57.04Y-65.455
X57.04Y-67.955
X57.04Y-85.455
X57.04Y-87.955
X57.04Y-105.455
X57.04Y-107.955
X57.04Y-125.455
X57.04Y-127.955
X57.04Y-145.455
X57.04Y-147.955
X65.04Y-42.835
X65.04Y-50.455
X65.04Y-62.835
X65.04Y-70.455
X65.04Y-82.835
X65.04Y-90.455
X65.04Y-102.835
X65.04Y-110.455
X65.04Y-122.835
X65.04Y-130.455
X65.04Y-142.835
X65.04Y-150.455
X67.58Y-42.835
X67.58Y-50.455
X67.58Y-62.835
X67.58Y-70.455
X67.58Y-82.835
X67.58Y-90.455
X67.58Y-102.835
X67.58Y-110.455
X67.58Y-122.835
X67.58Y-130.455
X67.58Y-142.835
X67.58Y-150.455
X70.12Y-42.835
X70.12Y-50.455
X70.12Y-62.835
X70.12Y-70.455
X70.12Y-82.835
X70.12Y-90.455
X70.12Y-102.835
X70.12Y-110.455
X70.12Y-122.835
X70.12Y-130.455
X70.12Y-142.835
X70.12Y-150.455
X72.66Y-42.835
X72.66Y-50.455
X72.66Y-62.835
X72.66Y-70.455
X72.66Y-82.835
X72.66Y-90.455
X72.66Y-102.835
X72.66Y-110.455
X72.66Y-122.835
X72.66Y-130.455
X72.66Y-142.835
X72.66Y-150.455
X75.2Y-42.835
X75.2Y-50.455
X75.2Y-62.835
X75.2Y-70.455
X75.2Y-82.835
X75.2Y-90.455
X75.2Y-102.835
X75.2Y-110.455
X75.2Y-122.835
X75.2Y-130.455
X75.2Y-142.835
X75.2Y-150.455
X77.74Y-42.835
X77.74Y-50.455
X77.74Y-62.835
X77.74Y-70.455
X77.74Y-82.835
X77.74Y-90.455
X77.74Y-102.835
X77.74Y-110.455
X77.74Y-122.835
X77.74Y-130.455
X77.74Y-142.835
X77.74Y-150.455
X80.28Y-42.835
X80.28Y-50.455
X80.28Y-62.835
X80.28Y-70.455
X80.28Y-82.835
X80.28Y-90.455
X80.28Y-102.835
X80.28Y-110.455
X80.28Y-122.835
X80.28Y-130.455
X80.28Y-142.835
X80.28Y-150.455
X82.82Y-142.835
X82.82Y-150.455
X85.36Y-142.835
X85.36Y-150.455
X87.9Y-142.835
X87.9Y-150.455
X90.44Y-142.835
X90.44Y-150.455
X92.04Y-45.455
X92.04Y-47.955
X92.04Y-65.455
X92.04Y-67.955
X92.04Y-85.455
X92.04Y-87.955
X92.04Y-105.455
X92.04Y-107.955
X92.04Y-125.455
X92.04Y-127.955
X92.98Y-142.835
X92.98Y-150.455
X100.04Y-42.835
X100.04Y-50.455
X100.04Y-62.835
X100.04Y-70.455
X100.04Y-82.835
X100.04Y-90.455
X100.04Y-102.835
X100.04Y-110.455
X100.04Y-122.835
X100.04Y-130.455
X102.58Y-42.835
X102.58Y-50.455
X102.58Y-62.835
X102.58Y-70.455
X102.58Y-82.835
X102.58Y-90.455
X102.58Y-102.835
X102.58Y-110.455
X102.58Y-122.835
X102.58Y-130.455
X105.04Y-142.835
X105.04Y-150.455
X105.12Y-42.835
X105.12Y-50.455
X105.12Y-62.835
X105.12Y-70.455
X105.12Y-82.835
X105.12Y-90.455
X105.12Y-102.835
X105.12Y-110.455
X105.12Y-122.835
X105.12Y-130.455
X107.58Y-142.835
X107.58Y-150.455
X107.66Y-42.835
X107.66Y-50.455
X107.66Y-62.835
X107.66Y-70.455
X107.66Y-82.835
X107.66Y-90.455
X107.66Y-102.835
X107.66Y-110.455
X107.66Y-122.835
X107.66Y-130.455
X110.12Y-142.835
X110.12Y-150.455
X110.2Y-42.835
X110.2Y-50.455
X110.2Y-62.835
X110.2Y-70.455
X110.2Y-82.835
X110.2Y-90.455
X110.2Y-102.835
X110.2Y-110.455
X110.2Y-122.835
X110.2Y-130.455
X112.66Y-142.835
X112.66Y-150.455
X112.74Y-42.835
X112.74Y-50.455
X112.74Y-62.835
X112.74Y-70.455
X112.74Y-82.835
X112.74Y-90.455
X112.74Y-102.835
X112.74Y-110.455
X112.74Y-122.835
X112.74Y-130.455
X115.2Y-142.835
X115.2Y-150.455
X115.28Y-42.835
X115.28Y-50.455
X115.28Y-62.835
X115.28Y-70.455
X115.28Y-82.835
X115.28Y-90.455
X115.28Y-102.835
X115.28Y-110.455
X115.28Y-122.835
X115.28Y-130.455
X117.74Y-142.835
X117.74Y-150.455
X120.28Y-142.835
X120.28Y-150.455
X122.82Y-142.835
X122.82Y-150.455
X125.36Y-142.835
X125.36Y-150.455
X127.04Y-45.455
X127.04Y-47.955
X127.04Y-65.455
X127.04Y-67.955
X127.04Y-85.455
X127.04Y-87.955
X127.04Y-105.455
X127.04Y-107.955
X127.04Y-125.455
X127.04Y-127.955
X127.9Y-142.835
X127.9Y-150.455
X130.44Y-142.835
X130.44Y-150.455
X132.98Y-142.835
X132.98Y-150.455
X135.04Y-42.835
X135.04Y-50.455
X135.04Y-62.835
X135.04Y-70.455
X135.04Y-82.835
X135.04Y-90.455
X135.04Y-102.835
X135.04Y-110.455
X135.04Y-122.835
X135.04Y-130.455
X137.58Y-42.835
X137.58Y-50.455
X137.58Y-62.835
X137.58Y-70.455
X137.58Y-82.835
X137.58Y-90.455
X137.58Y-102.835
X137.58Y-110.455
X137.58Y-122.835
X137.58Y-130.455
X140.065Y-145.85
X140.065Y-148.35
X140.12Y-42.835
X140.12Y-50.455
X140.12Y-62.835
X140.12Y-70.455
X140.12Y-82.835
X140.12Y-90.455
X140.12Y-102.835
X140.12Y-110.455
X140.12Y-122.835
X140.12Y-130.455
X142.66Y-42.835
X142.66Y-50.455
X142.66Y-62.835
X142.66Y-70.455
X142.66Y-82.835
X142.66Y-90.455
X142.66Y-102.835
X142.66Y-110.455
X142.66Y-122.835
X142.66Y-130.455
X145.2Y-42.835
X145.2Y-50.455
X145.2Y-62.835
X145.2Y-70.455
X145.2Y-82.835
X145.2Y-90.455
X145.2Y-102.835
X145.2Y-110.455
X145.2Y-122.835
X145.2Y-130.455
X147.74Y-42.835
X147.74Y-50.455
X147.74Y-62.835
X147.74Y-70.455
X147.74Y-82.835
X147.74Y-90.455
X147.74Y-102.835
X147.74Y-110.455
X147.74Y-122.835
X147.74Y-130.455
X150.28Y-42.835
X150.28Y-50.455
X150.28Y-62.835
X150.28Y-70.455
X150.28Y-82.835
X150.28Y-90.455
X150.28Y-102.835
X150.28Y-110.455
X150.28Y-122.835
X150.28Y-130.455
T3
X96.94Y-160.455
X99.48Y-160.455
X102.02Y-160.455
X104.56Y-160.455
X107.1Y-160.455
X109.64Y-160.455
X112.18Y-160.455
X114.72Y-160.455
X117.26Y-160.455
X119.8Y-160.455
X122.34Y-160.455
X124.88Y-160.455
X127.42Y-160.455
X129.96Y-160.455
X132.5Y-160.455
X135.04Y-160.455
X165.04Y-44.455
X165.04Y-46.995
X165.04Y-49.535
X165.04Y-52.075
X165.04Y-54.615
X165.04Y-57.155
X165.04Y-59.695
X165.04Y-62.235
X165.04Y-64.775
X165.04Y-67.315
X165.04Y-69.855
X165.04Y-72.395
X165.04Y-74.935
X165.04Y-77.475
X165.04Y-80.015
X165.04Y-82.555
X165.04Y-85.095
X165.04Y-87.635
X165.04Y-101.455
X165.04Y-103.995
X165.04Y-106.535
X165.04Y-109.075
X165.04Y-111.615
X165.04Y-114.155
X165.04Y-116.695
X165.04Y-119.235
X165.04Y-121.775
X165.04Y-124.315
X165.04Y-131.455
X165.04Y-133.995
X165.04Y-143.915
X165.04Y-146.455
M30
