G04 #@! TF.GenerationSoftware,KiCad,Pcbnew,8.0.8*
G04 #@! TF.CreationDate,2025-03-04T12:46:17-07:00*
G04 #@! TF.ProjectId,Decoder,4465636f-6465-4722-9e6b-696361645f70,0*
G04 #@! TF.SameCoordinates,Original*
G04 #@! TF.FileFunction,Copper,L1,Top*
G04 #@! TF.FilePolarity,Positive*
%FSLAX46Y46*%
G04 Gerber Fmt 4.6, Leading zero omitted, Abs format (unit mm)*
G04 Created by KiCad (PCBNEW 8.0.8) date 2025-03-04 12:46:17*
%MOMM*%
%LPD*%
G01*
G04 APERTURE LIST*
G04 #@! TA.AperFunction,ComponentPad*
%ADD10R,1.600000X1.600000*%
G04 #@! TD*
G04 #@! TA.AperFunction,ComponentPad*
%ADD11C,1.600000*%
G04 #@! TD*
G04 #@! TA.AperFunction,ComponentPad*
%ADD12O,1.600000X1.600000*%
G04 #@! TD*
G04 #@! TA.AperFunction,ComponentPad*
%ADD13R,1.700000X1.700000*%
G04 #@! TD*
G04 #@! TA.AperFunction,ComponentPad*
%ADD14O,1.700000X1.700000*%
G04 #@! TD*
G04 #@! TA.AperFunction,ViaPad*
%ADD15C,0.600000*%
G04 #@! TD*
G04 #@! TA.AperFunction,Conductor*
%ADD16C,0.319000*%
G04 #@! TD*
G04 #@! TA.AperFunction,Conductor*
%ADD17C,0.200000*%
G04 #@! TD*
G04 APERTURE END LIST*
D10*
X57040000Y-45455000D03*
D11*
X57040000Y-47955000D03*
D10*
X135040000Y-130455000D03*
D12*
X137580000Y-130455000D03*
X140120000Y-130455000D03*
X142660000Y-130455000D03*
X145200000Y-130455000D03*
X147740000Y-130455000D03*
X150280000Y-130455000D03*
X150280000Y-122835000D03*
X147740000Y-122835000D03*
X145200000Y-122835000D03*
X142660000Y-122835000D03*
X140120000Y-122835000D03*
X137580000Y-122835000D03*
X135040000Y-122835000D03*
D10*
X135040000Y-70455000D03*
D12*
X137580000Y-70455000D03*
X140120000Y-70455000D03*
X142660000Y-70455000D03*
X145200000Y-70455000D03*
X147740000Y-70455000D03*
X150280000Y-70455000D03*
X150280000Y-62835000D03*
X147740000Y-62835000D03*
X145200000Y-62835000D03*
X142660000Y-62835000D03*
X140120000Y-62835000D03*
X137580000Y-62835000D03*
X135040000Y-62835000D03*
D10*
X40040000Y-140455000D03*
D11*
X42540000Y-140455000D03*
D10*
X57040000Y-105455000D03*
D11*
X57040000Y-107955000D03*
D10*
X65040000Y-130455000D03*
D12*
X67580000Y-130455000D03*
X70120000Y-130455000D03*
X72660000Y-130455000D03*
X75200000Y-130455000D03*
X77740000Y-130455000D03*
X80280000Y-130455000D03*
X80280000Y-122835000D03*
X77740000Y-122835000D03*
X75200000Y-122835000D03*
X72660000Y-122835000D03*
X70120000Y-122835000D03*
X67580000Y-122835000D03*
X65040000Y-122835000D03*
D13*
X165040000Y-146455000D03*
D14*
X165040000Y-143915000D03*
D10*
X92040000Y-125455000D03*
D11*
X92040000Y-127955000D03*
D10*
X57040000Y-85455000D03*
D11*
X57040000Y-87955000D03*
D10*
X135040000Y-110455000D03*
D12*
X137580000Y-110455000D03*
X140120000Y-110455000D03*
X142660000Y-110455000D03*
X145200000Y-110455000D03*
X147740000Y-110455000D03*
X150280000Y-110455000D03*
X150280000Y-102835000D03*
X147740000Y-102835000D03*
X145200000Y-102835000D03*
X142660000Y-102835000D03*
X140120000Y-102835000D03*
X137580000Y-102835000D03*
X135040000Y-102835000D03*
D10*
X105040000Y-150455000D03*
D12*
X107580000Y-150455000D03*
X110120000Y-150455000D03*
X112660000Y-150455000D03*
X115200000Y-150455000D03*
X117740000Y-150455000D03*
X120280000Y-150455000D03*
X122820000Y-150455000D03*
X125360000Y-150455000D03*
X127900000Y-150455000D03*
X130440000Y-150455000D03*
X132980000Y-150455000D03*
X132980000Y-142835000D03*
X130440000Y-142835000D03*
X127900000Y-142835000D03*
X125360000Y-142835000D03*
X122820000Y-142835000D03*
X120280000Y-142835000D03*
X117740000Y-142835000D03*
X115200000Y-142835000D03*
X112660000Y-142835000D03*
X110120000Y-142835000D03*
X107580000Y-142835000D03*
X105040000Y-142835000D03*
D10*
X100040000Y-90455000D03*
D12*
X102580000Y-90455000D03*
X105120000Y-90455000D03*
X107660000Y-90455000D03*
X110200000Y-90455000D03*
X112740000Y-90455000D03*
X115280000Y-90455000D03*
X115280000Y-82835000D03*
X112740000Y-82835000D03*
X110200000Y-82835000D03*
X107660000Y-82835000D03*
X105120000Y-82835000D03*
X102580000Y-82835000D03*
X100040000Y-82835000D03*
D10*
X65040000Y-110455000D03*
D12*
X67580000Y-110455000D03*
X70120000Y-110455000D03*
X72660000Y-110455000D03*
X75200000Y-110455000D03*
X77740000Y-110455000D03*
X80280000Y-110455000D03*
X80280000Y-102835000D03*
X77740000Y-102835000D03*
X75200000Y-102835000D03*
X72660000Y-102835000D03*
X70120000Y-102835000D03*
X67580000Y-102835000D03*
X65040000Y-102835000D03*
D10*
X127040000Y-125455000D03*
D11*
X127040000Y-127955000D03*
D10*
X65040000Y-70455000D03*
D12*
X67580000Y-70455000D03*
X70120000Y-70455000D03*
X72660000Y-70455000D03*
X75200000Y-70455000D03*
X77740000Y-70455000D03*
X80280000Y-70455000D03*
X80280000Y-62835000D03*
X77740000Y-62835000D03*
X75200000Y-62835000D03*
X72660000Y-62835000D03*
X70120000Y-62835000D03*
X67580000Y-62835000D03*
X65040000Y-62835000D03*
D10*
X127040000Y-85455000D03*
D11*
X127040000Y-87955000D03*
D10*
X127040000Y-105455000D03*
D11*
X127040000Y-107955000D03*
D10*
X100040000Y-70455000D03*
D12*
X102580000Y-70455000D03*
X105120000Y-70455000D03*
X107660000Y-70455000D03*
X110200000Y-70455000D03*
X112740000Y-70455000D03*
X115280000Y-70455000D03*
X115280000Y-62835000D03*
X112740000Y-62835000D03*
X110200000Y-62835000D03*
X107660000Y-62835000D03*
X105120000Y-62835000D03*
X102580000Y-62835000D03*
X100040000Y-62835000D03*
D10*
X57040000Y-145455000D03*
D11*
X57040000Y-147955000D03*
D10*
X92040000Y-65455000D03*
D11*
X92040000Y-67955000D03*
D10*
X92040000Y-85455000D03*
D11*
X92040000Y-87955000D03*
D10*
X57040000Y-65455000D03*
D11*
X57040000Y-67955000D03*
D10*
X100040000Y-130455000D03*
D12*
X102580000Y-130455000D03*
X105120000Y-130455000D03*
X107660000Y-130455000D03*
X110200000Y-130455000D03*
X112740000Y-130455000D03*
X115280000Y-130455000D03*
X115280000Y-122835000D03*
X112740000Y-122835000D03*
X110200000Y-122835000D03*
X107660000Y-122835000D03*
X105120000Y-122835000D03*
X102580000Y-122835000D03*
X100040000Y-122835000D03*
D10*
X135040000Y-90455000D03*
D12*
X137580000Y-90455000D03*
X140120000Y-90455000D03*
X142660000Y-90455000D03*
X145200000Y-90455000D03*
X147740000Y-90455000D03*
X150280000Y-90455000D03*
X150280000Y-82835000D03*
X147740000Y-82835000D03*
X145200000Y-82835000D03*
X142660000Y-82835000D03*
X140120000Y-82835000D03*
X137580000Y-82835000D03*
X135040000Y-82835000D03*
D13*
X135040000Y-160455000D03*
D14*
X132500000Y-160455000D03*
X129960000Y-160455000D03*
X127420000Y-160455000D03*
X124880000Y-160455000D03*
X122340000Y-160455000D03*
X119800000Y-160455000D03*
X117260000Y-160455000D03*
X114720000Y-160455000D03*
X112180000Y-160455000D03*
X109640000Y-160455000D03*
X107100000Y-160455000D03*
X104560000Y-160455000D03*
X102020000Y-160455000D03*
X99480000Y-160455000D03*
X96940000Y-160455000D03*
D10*
X140065000Y-145849900D03*
D11*
X140065000Y-148349900D03*
D10*
X40040000Y-50455000D03*
D11*
X42540000Y-50455000D03*
D13*
X165040000Y-44455000D03*
D14*
X165040000Y-46995000D03*
X165040000Y-49535000D03*
X165040000Y-52075000D03*
X165040000Y-54615000D03*
X165040000Y-57155000D03*
X165040000Y-59695000D03*
X165040000Y-62235000D03*
X165040000Y-64775000D03*
X165040000Y-67315000D03*
X165040000Y-69855000D03*
X165040000Y-72395000D03*
X165040000Y-74935000D03*
X165040000Y-77475000D03*
X165040000Y-80015000D03*
X165040000Y-82555000D03*
X165040000Y-85095000D03*
X165040000Y-87635000D03*
D10*
X92040000Y-105455000D03*
D11*
X92040000Y-107955000D03*
D10*
X127040000Y-45455000D03*
D11*
X127040000Y-47955000D03*
D10*
X57040000Y-125455000D03*
D11*
X57040000Y-127955000D03*
D10*
X100040000Y-50455000D03*
D12*
X102580000Y-50455000D03*
X105120000Y-50455000D03*
X107660000Y-50455000D03*
X110200000Y-50455000D03*
X112740000Y-50455000D03*
X115280000Y-50455000D03*
X115280000Y-42835000D03*
X112740000Y-42835000D03*
X110200000Y-42835000D03*
X107660000Y-42835000D03*
X105120000Y-42835000D03*
X102580000Y-42835000D03*
X100040000Y-42835000D03*
D10*
X45040000Y-90455000D03*
D12*
X45040000Y-87915000D03*
X45040000Y-85375000D03*
X45040000Y-82835000D03*
X45040000Y-80295000D03*
X45040000Y-77755000D03*
X45040000Y-75215000D03*
X45040000Y-72675000D03*
X45040000Y-70135000D03*
X45040000Y-67595000D03*
X45040000Y-65055000D03*
X45040000Y-62515000D03*
X37420000Y-62515000D03*
X37420000Y-65055000D03*
X37420000Y-67595000D03*
X37420000Y-70135000D03*
X37420000Y-72675000D03*
X37420000Y-75215000D03*
X37420000Y-77755000D03*
X37420000Y-80295000D03*
X37420000Y-82835000D03*
X37420000Y-85375000D03*
X37420000Y-87915000D03*
X37420000Y-90455000D03*
D10*
X65040000Y-150455000D03*
D12*
X67580000Y-150455000D03*
X70120000Y-150455000D03*
X72660000Y-150455000D03*
X75200000Y-150455000D03*
X77740000Y-150455000D03*
X80280000Y-150455000D03*
X82820000Y-150455000D03*
X85360000Y-150455000D03*
X87900000Y-150455000D03*
X90440000Y-150455000D03*
X92980000Y-150455000D03*
X92980000Y-142835000D03*
X90440000Y-142835000D03*
X87900000Y-142835000D03*
X85360000Y-142835000D03*
X82820000Y-142835000D03*
X80280000Y-142835000D03*
X77740000Y-142835000D03*
X75200000Y-142835000D03*
X72660000Y-142835000D03*
X70120000Y-142835000D03*
X67580000Y-142835000D03*
X65040000Y-142835000D03*
D10*
X65040000Y-50455000D03*
D12*
X67580000Y-50455000D03*
X70120000Y-50455000D03*
X72660000Y-50455000D03*
X75200000Y-50455000D03*
X77740000Y-50455000D03*
X80280000Y-50455000D03*
X80280000Y-42835000D03*
X77740000Y-42835000D03*
X75200000Y-42835000D03*
X72660000Y-42835000D03*
X70120000Y-42835000D03*
X67580000Y-42835000D03*
X65040000Y-42835000D03*
D10*
X100040000Y-110455000D03*
D12*
X102580000Y-110455000D03*
X105120000Y-110455000D03*
X107660000Y-110455000D03*
X110200000Y-110455000D03*
X112740000Y-110455000D03*
X115280000Y-110455000D03*
X115280000Y-102835000D03*
X112740000Y-102835000D03*
X110200000Y-102835000D03*
X107660000Y-102835000D03*
X105120000Y-102835000D03*
X102580000Y-102835000D03*
X100040000Y-102835000D03*
D10*
X92040000Y-45455000D03*
D11*
X92040000Y-47955000D03*
D13*
X165040000Y-131455000D03*
D14*
X165040000Y-133995000D03*
D10*
X65040000Y-90455000D03*
D12*
X67580000Y-90455000D03*
X70120000Y-90455000D03*
X72660000Y-90455000D03*
X75200000Y-90455000D03*
X77740000Y-90455000D03*
X80280000Y-90455000D03*
X80280000Y-82835000D03*
X77740000Y-82835000D03*
X75200000Y-82835000D03*
X72660000Y-82835000D03*
X70120000Y-82835000D03*
X67580000Y-82835000D03*
X65040000Y-82835000D03*
D10*
X135040000Y-50455000D03*
D12*
X137580000Y-50455000D03*
X140120000Y-50455000D03*
X142660000Y-50455000D03*
X145200000Y-50455000D03*
X147740000Y-50455000D03*
X150280000Y-50455000D03*
X150280000Y-42835000D03*
X147740000Y-42835000D03*
X145200000Y-42835000D03*
X142660000Y-42835000D03*
X140120000Y-42835000D03*
X137580000Y-42835000D03*
X135040000Y-42835000D03*
D13*
X165040000Y-101455000D03*
D14*
X165040000Y-103995000D03*
X165040000Y-106535000D03*
X165040000Y-109075000D03*
X165040000Y-111615000D03*
X165040000Y-114155000D03*
X165040000Y-116695000D03*
X165040000Y-119235000D03*
X165040000Y-121775000D03*
X165040000Y-124315000D03*
D10*
X45040000Y-130455000D03*
D12*
X45040000Y-127915000D03*
X45040000Y-125375000D03*
X45040000Y-122835000D03*
X45040000Y-120295000D03*
X45040000Y-117755000D03*
X45040000Y-115215000D03*
X45040000Y-112675000D03*
X45040000Y-110135000D03*
X45040000Y-107595000D03*
X45040000Y-105055000D03*
X45040000Y-102515000D03*
X37420000Y-102515000D03*
X37420000Y-105055000D03*
X37420000Y-107595000D03*
X37420000Y-110135000D03*
X37420000Y-112675000D03*
X37420000Y-115215000D03*
X37420000Y-117755000D03*
X37420000Y-120295000D03*
X37420000Y-122835000D03*
X37420000Y-125375000D03*
X37420000Y-127915000D03*
X37420000Y-130455000D03*
D10*
X127040000Y-65455000D03*
D11*
X127040000Y-67955000D03*
D15*
X122367300Y-153716800D03*
X46419700Y-89326500D03*
X53760400Y-147289700D03*
X116383600Y-145141200D03*
X41369300Y-157000000D03*
X113317600Y-148218400D03*
X108983400Y-147013200D03*
X118880300Y-144661100D03*
X36559000Y-154685200D03*
X54581700Y-146555400D03*
X49678000Y-79193300D03*
X35500000Y-157000000D03*
X102020000Y-149970100D03*
X71879000Y-146712500D03*
X37165400Y-156000000D03*
X106430200Y-151178500D03*
X106491900Y-148628000D03*
X70120000Y-147290100D03*
X99480000Y-149960300D03*
X100750000Y-150576400D03*
X91585700Y-141174200D03*
X91585700Y-147917000D03*
X89189400Y-147936000D03*
X68728600Y-147289600D03*
X38825000Y-155725300D03*
X35165000Y-89155000D03*
X152957400Y-94465200D03*
X129440400Y-94465200D03*
X163484100Y-85244000D03*
X130061700Y-80779600D03*
X159546200Y-131574200D03*
X97481400Y-43905400D03*
X152811200Y-81902000D03*
X152335200Y-51788700D03*
X98869900Y-45633800D03*
X127527200Y-49259300D03*
X94529000Y-87271900D03*
X131353400Y-119235000D03*
X121864500Y-95360200D03*
X92480500Y-84068500D03*
X158288100Y-121648600D03*
X146873900Y-106456400D03*
X131725600Y-120458000D03*
X129104600Y-98452200D03*
X122414500Y-55019800D03*
X162925100Y-122379700D03*
X91972900Y-109492800D03*
X127051400Y-120370700D03*
X94352300Y-120370700D03*
X128867100Y-121089400D03*
X129441100Y-96033000D03*
X123798900Y-74496100D03*
X161370700Y-82835000D03*
X159199500Y-46431900D03*
X157515300Y-81487400D03*
X148843400Y-87838600D03*
X161449200Y-80474500D03*
X159580200Y-81083700D03*
X159085200Y-45033100D03*
X166021200Y-48581800D03*
X57504500Y-82397000D03*
X94351000Y-81280300D03*
X92152200Y-78360700D03*
X59145700Y-76520300D03*
X56971700Y-74346300D03*
X92523700Y-90359500D03*
X55846900Y-75125000D03*
X59713100Y-87272200D03*
X58869900Y-107278500D03*
X56960400Y-91685700D03*
X91593000Y-74422700D03*
X94335800Y-78374200D03*
X58881700Y-74422700D03*
X57119300Y-72617300D03*
X57009900Y-81718200D03*
X63348000Y-42994300D03*
X38552100Y-42994300D03*
X60628400Y-77132200D03*
X57507700Y-75915300D03*
X125290700Y-68277000D03*
X92375400Y-77132200D03*
X129856800Y-61716500D03*
X103692100Y-68639400D03*
X91543300Y-76376900D03*
X95130700Y-86233000D03*
X55839100Y-73225100D03*
X59343900Y-75125900D03*
X59680800Y-106504100D03*
X56830400Y-89834500D03*
X56957900Y-63764900D03*
X58877000Y-73371300D03*
X92121400Y-73371300D03*
X94962300Y-78883100D03*
X55835800Y-70478400D03*
X96133200Y-87120100D03*
X92157700Y-80769500D03*
X57395600Y-76835100D03*
X60038500Y-79478000D03*
X57535000Y-89283900D03*
X147341100Y-97086100D03*
X128906300Y-97086100D03*
X123187600Y-72977600D03*
X92985500Y-79357400D03*
X125217700Y-70784300D03*
X92519000Y-58949800D03*
X56348600Y-61180300D03*
X129260100Y-87275600D03*
X95955300Y-78019100D03*
X57315300Y-77755000D03*
X62227900Y-72532100D03*
X101307700Y-78019100D03*
X92177000Y-72532100D03*
X117624300Y-64766300D03*
X93764400Y-106148100D03*
X57439700Y-123888900D03*
X105120000Y-64766300D03*
X91547200Y-101722200D03*
X117624300Y-101532400D03*
X56405000Y-122421500D03*
X58933200Y-117868100D03*
X92947000Y-117868100D03*
X85104900Y-117868100D03*
X83850200Y-139690200D03*
X60786700Y-139690200D03*
X50811700Y-130125300D03*
X56997000Y-130125300D03*
X101251500Y-139690200D03*
X81510600Y-64209500D03*
X130766600Y-127285900D03*
X140190200Y-108819700D03*
X58861500Y-120034800D03*
X57407400Y-120295000D03*
X98203700Y-130688700D03*
X57283300Y-123061200D03*
X126810000Y-103900600D03*
X59680800Y-111882700D03*
X92971000Y-111882700D03*
X143930000Y-126572700D03*
X136212400Y-128624600D03*
X136212400Y-147050900D03*
X125360700Y-153351600D03*
X69405700Y-145431800D03*
X126463000Y-147797900D03*
X118226100Y-75097800D03*
X127536700Y-75097800D03*
X127900000Y-153019900D03*
X70920200Y-146677700D03*
X136168400Y-108624600D03*
X131173500Y-148609300D03*
X110155600Y-148615800D03*
X108251900Y-148614700D03*
X129006900Y-148181800D03*
X127497900Y-76432500D03*
X119409600Y-78991700D03*
X123597900Y-123972900D03*
X105349600Y-148615100D03*
X117656000Y-128563800D03*
X106428700Y-128639400D03*
X106116100Y-141733300D03*
X103982600Y-139034400D03*
X103726200Y-138095700D03*
X105275600Y-137731700D03*
X73984100Y-144755700D03*
X137332700Y-147652700D03*
X103210800Y-135671700D03*
X102187300Y-136546800D03*
X74098300Y-68639000D03*
X85706600Y-84116100D03*
X68850000Y-68625900D03*
X82650700Y-87941100D03*
X120764800Y-124619700D03*
X101141700Y-128620300D03*
X99574400Y-147154900D03*
X97681000Y-126846200D03*
X89332100Y-145837000D03*
X89332100Y-126846200D03*
X125417100Y-147011200D03*
X99569500Y-128621200D03*
X96106400Y-148573900D03*
X86313400Y-122835000D03*
X93881400Y-46577100D03*
X94859800Y-121677000D03*
X92582900Y-123953900D03*
X78401500Y-99911900D03*
X71481100Y-105898900D03*
X71479500Y-87121700D03*
X66459700Y-88616900D03*
X84105700Y-82454400D03*
X97939500Y-42963800D03*
X84105700Y-42963800D03*
X95664400Y-95966100D03*
X116003200Y-95966100D03*
X128890600Y-100967600D03*
X141548900Y-127293100D03*
X92538100Y-93072300D03*
X123884100Y-95033400D03*
X97120900Y-100929900D03*
X122240500Y-102904600D03*
X128882400Y-111967000D03*
X91564500Y-90533600D03*
X95426700Y-107277300D03*
X91725400Y-93926500D03*
X97244700Y-77105500D03*
X128946400Y-109234700D03*
X92569400Y-71222600D03*
X121450300Y-77105500D03*
X92059100Y-58104400D03*
X75675400Y-47288700D03*
X126498700Y-76319600D03*
X91557300Y-69376600D03*
X131904500Y-87289400D03*
X95665700Y-76491100D03*
X76470000Y-66645700D03*
X94903000Y-67278100D03*
X91968400Y-63247700D03*
X83179600Y-63247700D03*
X92172000Y-51165000D03*
X129978300Y-60903900D03*
X126190300Y-57115900D03*
X94578400Y-57115900D03*
X91565800Y-56378100D03*
X95504700Y-66132200D03*
X114380000Y-66132200D03*
X91925200Y-49551200D03*
X95374500Y-57719800D03*
X91961500Y-52009700D03*
X94242200Y-58560600D03*
X110455400Y-48636900D03*
X120731500Y-55918800D03*
X124261100Y-52295000D03*
X124804900Y-129273900D03*
X104312800Y-44567800D03*
X119229500Y-54222400D03*
X129748600Y-122700400D03*
X128971400Y-68631300D03*
X149296300Y-67347100D03*
X127001700Y-71558000D03*
X125274600Y-66976700D03*
X129104600Y-52028700D03*
X103945500Y-108635300D03*
X118433200Y-129318500D03*
X130630200Y-121721000D03*
X120614700Y-102835000D03*
X152140000Y-133001100D03*
X152140000Y-69574200D03*
D16*
X62420000Y-105455000D02*
X65040000Y-102835000D01*
X40040000Y-140455000D02*
X40040000Y-133075000D01*
X58199500Y-84295000D02*
X58199500Y-66615000D01*
X165040000Y-143915000D02*
X163105000Y-145849900D01*
X62420000Y-65455000D02*
X65040000Y-62835000D01*
X108055000Y-145849900D02*
X105040000Y-142835000D01*
X58199500Y-104295000D02*
X58199500Y-86615000D01*
X58665000Y-143830000D02*
X57040000Y-145455000D01*
X92040000Y-65455000D02*
X93199500Y-64295000D01*
X127040000Y-85455000D02*
X128165000Y-84330000D01*
X92040000Y-65455000D02*
X97420000Y-65455000D01*
X65040000Y-142835000D02*
X59660000Y-142835000D01*
X45040000Y-45455000D02*
X40040000Y-50455000D01*
X62420000Y-85455000D02*
X65040000Y-82835000D01*
X128199000Y-104295000D02*
X128199000Y-86615000D01*
X57040000Y-85455000D02*
X62420000Y-85455000D01*
X58199500Y-46615000D02*
X57040000Y-45455000D01*
X37420000Y-130455000D02*
X36260500Y-129295500D01*
X97420000Y-85455000D02*
X100040000Y-82835000D01*
X66199500Y-143994500D02*
X65040000Y-142835000D01*
X97420000Y-65455000D02*
X100040000Y-62835000D01*
X57040000Y-65455000D02*
X58199500Y-64295000D01*
X92040000Y-125455000D02*
X93665000Y-123830000D01*
X57040000Y-125455000D02*
X58199500Y-124295500D01*
X92040000Y-85455000D02*
X93665000Y-83830000D01*
X93665000Y-83830000D02*
X93665000Y-67080000D01*
X128199000Y-46615000D02*
X127040000Y-45455000D01*
X105040000Y-142835000D02*
X104485000Y-142835000D01*
X92040000Y-125455000D02*
X97420000Y-125455000D01*
X57040000Y-65455000D02*
X62420000Y-65455000D01*
X133665000Y-126155000D02*
X133665000Y-124155000D01*
X132965000Y-125455000D02*
X133665000Y-126155000D01*
X92040000Y-105455000D02*
X93199500Y-104295000D01*
X103325500Y-143994500D02*
X66199500Y-143994500D01*
X128199000Y-83621000D02*
X128199000Y-66615000D01*
X133665000Y-139449900D02*
X133665000Y-126155000D01*
X57040000Y-105455000D02*
X58199500Y-104295000D01*
X128165000Y-83655000D02*
X128199000Y-83621000D01*
X104485000Y-142835000D02*
X103325500Y-143994500D01*
X57040000Y-85455000D02*
X58199500Y-84295000D01*
X105040000Y-142835000D02*
X105040000Y-138455000D01*
X105040000Y-138455000D02*
X98880500Y-132295500D01*
X133720000Y-124155000D02*
X135040000Y-122835000D01*
X93665000Y-107080000D02*
X92040000Y-105455000D01*
X92040000Y-105455000D02*
X97420000Y-105455000D01*
X127040000Y-105455000D02*
X128199000Y-104295000D01*
X92040000Y-45455000D02*
X97420000Y-45455000D01*
X127040000Y-65455000D02*
X128199000Y-64295000D01*
X98880500Y-123994500D02*
X100040000Y-122835000D01*
X58665000Y-127080000D02*
X57040000Y-125455000D01*
X57040000Y-145455000D02*
X45040000Y-145455000D01*
X128199000Y-106615000D02*
X127040000Y-105455000D01*
X93199500Y-86615000D02*
X92040000Y-85455000D01*
X132420000Y-65455000D02*
X135040000Y-62835000D01*
X140065000Y-145849900D02*
X108055000Y-145849900D01*
X97420000Y-105455000D02*
X100040000Y-102835000D01*
X97420000Y-45455000D02*
X100040000Y-42835000D01*
X128199000Y-86615000D02*
X127040000Y-85455000D01*
X58199500Y-66615000D02*
X57040000Y-65455000D01*
X97420000Y-125455000D02*
X98880500Y-123994500D01*
X57040000Y-105455000D02*
X62420000Y-105455000D01*
X140065000Y-145849900D02*
X133665000Y-139449900D01*
X59660000Y-142835000D02*
X58665000Y-143830000D01*
X92040000Y-85455000D02*
X97420000Y-85455000D01*
X128199000Y-66615000D02*
X127040000Y-65455000D01*
X127040000Y-125455000D02*
X132965000Y-125455000D01*
X98880500Y-123994500D02*
X100040000Y-122835000D01*
X133665000Y-124155000D02*
X133720000Y-124155000D01*
X93199500Y-46615000D02*
X92040000Y-45455000D01*
X128199000Y-64295000D02*
X128199000Y-46615000D01*
X93199500Y-64295000D02*
X93199500Y-46615000D01*
X132420000Y-105455000D02*
X135040000Y-102835000D01*
X58665000Y-143830000D02*
X58665000Y-127080000D01*
X93199500Y-104295000D02*
X93199500Y-86615000D01*
X36260500Y-91615000D02*
X37420000Y-90455000D01*
X128165000Y-84330000D02*
X128165000Y-83655000D01*
X127040000Y-45455000D02*
X132420000Y-45455000D01*
X36260500Y-129295500D02*
X36260500Y-91615000D01*
X93665000Y-123830000D02*
X93665000Y-107080000D01*
X128199000Y-124295500D02*
X128199000Y-106615000D01*
X58199500Y-124295500D02*
X58199500Y-106615000D01*
X132420000Y-85455000D02*
X135040000Y-82835000D01*
X98880500Y-132295500D02*
X98880500Y-123994500D01*
X127040000Y-85455000D02*
X132420000Y-85455000D01*
X163105000Y-145849900D02*
X140065000Y-145849900D01*
X62420000Y-45455000D02*
X65040000Y-42835000D01*
X57040000Y-45455000D02*
X62420000Y-45455000D01*
X127040000Y-65455000D02*
X132420000Y-65455000D01*
X62420000Y-125455000D02*
X65040000Y-122835000D01*
X40040000Y-133075000D02*
X37420000Y-130455000D01*
X57040000Y-125455000D02*
X62420000Y-125455000D01*
X58199500Y-86615000D02*
X57040000Y-85455000D01*
X45040000Y-145455000D02*
X40040000Y-140455000D01*
X132420000Y-45455000D02*
X135040000Y-42835000D01*
X58199500Y-64295000D02*
X58199500Y-46615000D01*
X127040000Y-105455000D02*
X132420000Y-105455000D01*
X127040000Y-125455000D02*
X128199000Y-124295500D01*
X57040000Y-45455000D02*
X45040000Y-45455000D01*
X93665000Y-67080000D02*
X92040000Y-65455000D01*
X57040000Y-145455000D02*
X58665000Y-143830000D01*
X58199500Y-106615000D02*
X57040000Y-105455000D01*
D17*
X99454900Y-153515800D02*
X68193400Y-153515800D01*
X67673900Y-152996300D02*
X67341300Y-152996300D01*
X59349300Y-152878600D02*
X53760400Y-147289700D01*
X68193400Y-153515800D02*
X67673900Y-152996300D01*
X46419700Y-89326500D02*
X39933200Y-89326500D01*
X37420000Y-87915000D02*
X38521700Y-87915000D01*
X67270700Y-153066900D02*
X65290800Y-153066900D01*
X39933200Y-89326500D02*
X38521700Y-87915000D01*
X65102500Y-152878600D02*
X59349300Y-152878600D01*
X99655900Y-153716800D02*
X99454900Y-153515800D01*
X122367300Y-153716800D02*
X99655900Y-153716800D01*
X65290800Y-153066900D02*
X65102500Y-152878600D01*
X67341300Y-152996300D02*
X67270700Y-153066900D01*
X115930200Y-145141200D02*
X116383600Y-145141200D01*
X113624000Y-142835000D02*
X115930200Y-145141200D01*
X112660000Y-142835000D02*
X113624000Y-142835000D01*
X96485854Y-161627200D02*
X98500000Y-161627200D01*
X41369300Y-157000000D02*
X41644000Y-156725300D01*
X120260600Y-161627200D02*
X98500000Y-161627200D01*
X121432800Y-160455000D02*
X120260600Y-161627200D01*
X95790000Y-160290000D02*
X95790000Y-160931346D01*
X92225300Y-156725300D02*
X95790000Y-160290000D01*
X41644000Y-156725300D02*
X92225300Y-156725300D01*
X122340000Y-160455000D02*
X121432800Y-160455000D01*
X95790000Y-160931346D02*
X96485854Y-161627200D01*
X113317600Y-148218400D02*
X112112400Y-147013200D01*
X112112400Y-147013200D02*
X108983400Y-147013200D01*
X117990100Y-144661100D02*
X118880300Y-144661100D01*
X116164000Y-142835000D02*
X117990100Y-144661100D01*
X115200000Y-142835000D02*
X116164000Y-142835000D01*
X124880000Y-160455000D02*
X123965000Y-160455000D01*
X67729200Y-155323600D02*
X118882800Y-155323600D01*
X123965000Y-160455000D02*
X123728300Y-160218300D01*
X36559000Y-154685200D02*
X67090800Y-154685200D01*
X118882800Y-155323600D02*
X123728300Y-160169100D01*
X123728300Y-160169100D02*
X123728300Y-160218300D01*
X67090800Y-154685200D02*
X67729200Y-155323600D01*
X64865400Y-153280300D02*
X58837400Y-153280300D01*
X58837400Y-153280300D02*
X53144200Y-147587100D01*
X128241400Y-154520200D02*
X99889100Y-154520200D01*
X39623400Y-79193300D02*
X49678000Y-79193300D01*
X38521700Y-80295000D02*
X39623400Y-79193300D01*
X37420000Y-80295000D02*
X38521700Y-80295000D01*
X135040000Y-160455000D02*
X134176200Y-160455000D01*
X67719300Y-153680500D02*
X65265600Y-153680500D01*
X53144200Y-147587100D02*
X53144200Y-147007300D01*
X68068400Y-154029600D02*
X67719300Y-153680500D01*
X99398500Y-154029600D02*
X68068400Y-154029600D01*
X99889100Y-154520200D02*
X99398500Y-154029600D01*
X53144200Y-147007300D02*
X53596100Y-146555400D01*
X65265600Y-153680500D02*
X64865400Y-153280300D01*
X53596100Y-146555400D02*
X54581700Y-146555400D01*
X134176200Y-160455000D02*
X128241400Y-154520200D01*
X91418269Y-157125300D02*
X43500000Y-157125300D01*
X36100000Y-157600000D02*
X35500000Y-157000000D01*
X127280100Y-162271100D02*
X96564069Y-162271100D01*
X129096200Y-160455000D02*
X127280100Y-162271100D01*
X129960000Y-160455000D02*
X129096200Y-160455000D01*
X96564069Y-162271100D02*
X91418269Y-157125300D01*
X43500000Y-157125300D02*
X43025300Y-157600000D01*
X43025300Y-157600000D02*
X36100000Y-157600000D01*
X71879000Y-146712500D02*
X98281200Y-146712500D01*
X101538800Y-149970100D02*
X102020000Y-149970100D01*
X98281200Y-146712500D02*
X101538800Y-149970100D01*
X117500000Y-159603886D02*
X114021414Y-156125300D01*
X111800000Y-156325300D02*
X37490700Y-156325300D01*
X117260000Y-160455000D02*
X117500000Y-160215000D01*
X112000000Y-156125300D02*
X111800000Y-156325300D01*
X117500000Y-160215000D02*
X117500000Y-159603886D01*
X114021414Y-156125300D02*
X112000000Y-156125300D01*
X37490700Y-156325300D02*
X37165400Y-156000000D01*
X106430200Y-151178500D02*
X106430200Y-148689700D01*
X106430200Y-148689700D02*
X106491900Y-148628000D01*
X70120000Y-147290100D02*
X70145100Y-147315200D01*
X96834900Y-147315200D02*
X99480000Y-149960300D01*
X70145100Y-147315200D02*
X96834900Y-147315200D01*
X98960100Y-150576400D02*
X96300700Y-147917000D01*
X100750000Y-150576400D02*
X98960100Y-150576400D01*
X77734200Y-141174200D02*
X91585700Y-141174200D01*
X76073400Y-142835000D02*
X77734200Y-141174200D01*
X75200000Y-142835000D02*
X76073400Y-142835000D01*
X96300700Y-147917000D02*
X91585700Y-147917000D01*
X68728600Y-147289600D02*
X69375000Y-147936000D01*
X69375000Y-147936000D02*
X89189400Y-147936000D01*
X118916800Y-160455000D02*
X114187100Y-155725300D01*
X114187100Y-155725300D02*
X38825000Y-155725300D01*
X119800000Y-160455000D02*
X118916800Y-160455000D01*
X67458700Y-154485100D02*
X99196100Y-154485100D01*
X67057300Y-154083700D02*
X67458700Y-154485100D01*
X35165000Y-145550500D02*
X35165000Y-89155000D01*
X99196100Y-154485100D02*
X99632900Y-154921900D01*
X43665000Y-154050500D02*
X35165000Y-145550500D01*
X64403400Y-154083700D02*
X67057300Y-154083700D01*
X131624100Y-159579100D02*
X130740900Y-159579100D01*
X132500000Y-160455000D02*
X131624100Y-159579100D01*
X43665000Y-154050500D02*
X64370200Y-154050500D01*
X99632900Y-154921900D02*
X126083700Y-154921900D01*
X126083700Y-154921900D02*
X130740900Y-159579100D01*
X64370200Y-154050500D02*
X64403400Y-154083700D01*
X152957400Y-94465200D02*
X129440400Y-94465200D01*
X134576900Y-80779600D02*
X130061700Y-80779600D01*
X137122100Y-83947100D02*
X136310000Y-83135000D01*
X145200000Y-82835000D02*
X144087900Y-83947100D01*
X146073400Y-82835000D02*
X148482400Y-85244000D01*
X144087900Y-83947100D02*
X137122100Y-83947100D01*
X148482400Y-85244000D02*
X163484100Y-85244000D01*
X136310000Y-83135000D02*
X136310000Y-82512700D01*
X145200000Y-82835000D02*
X146073400Y-82835000D01*
X136310000Y-82512700D02*
X134576900Y-80779600D01*
X140120000Y-130455000D02*
X141084000Y-130455000D01*
X141084000Y-130455000D02*
X142203200Y-131574200D01*
X142203200Y-131574200D02*
X159546200Y-131574200D01*
X98869900Y-45633800D02*
X105776900Y-45633800D01*
X148613400Y-82835000D02*
X149761300Y-81687100D01*
X80280000Y-42835000D02*
X81381700Y-42835000D01*
X142660000Y-50455000D02*
X145200000Y-50455000D01*
X146343900Y-49311100D02*
X145200000Y-50455000D01*
X149761300Y-81687100D02*
X152596300Y-81687100D01*
X81381700Y-42835000D02*
X82452100Y-43905400D01*
X152596300Y-81687100D02*
X152811200Y-81902000D01*
X109402400Y-49259300D02*
X127527200Y-49259300D01*
X152335200Y-50881300D02*
X150765000Y-49311100D01*
X152335200Y-51788700D02*
X152335200Y-50881300D01*
X150765000Y-49311100D02*
X146343900Y-49311100D01*
X105776900Y-45633800D02*
X109402400Y-49259300D01*
X147740000Y-82835000D02*
X148613400Y-82835000D01*
X82452100Y-43905400D02*
X97481400Y-43905400D01*
X165040000Y-119235000D02*
X131353400Y-119235000D01*
X92480500Y-84068500D02*
X87515300Y-84068500D01*
X86819900Y-84763900D02*
X75462300Y-84763900D01*
X87515300Y-84068500D02*
X86819900Y-84763900D01*
X72660000Y-82835000D02*
X73538400Y-82835000D01*
X75462300Y-84763900D02*
X73761700Y-83063300D01*
X121864500Y-95360200D02*
X102617300Y-95360200D01*
X73761700Y-83063300D02*
X73761700Y-83058300D01*
X102617300Y-95360200D02*
X94529000Y-87271900D01*
X73538400Y-82835000D02*
X73761700Y-83058300D01*
X142660000Y-122835000D02*
X143846400Y-121648600D01*
X143846400Y-121648600D02*
X158288100Y-121648600D01*
X152345500Y-106456400D02*
X146873900Y-106456400D01*
X160044100Y-114155000D02*
X152345500Y-106456400D01*
X165040000Y-114155000D02*
X160044100Y-114155000D01*
X162571300Y-120458000D02*
X131725600Y-120458000D01*
X165040000Y-121775000D02*
X163888300Y-121775000D01*
X163888300Y-121775000D02*
X162571300Y-120458000D01*
X166191700Y-108562600D02*
X165434100Y-107805000D01*
X110558200Y-55019800D02*
X122414500Y-55019800D01*
X105993400Y-50455000D02*
X110558200Y-55019800D01*
X147854400Y-98452200D02*
X129104600Y-98452200D01*
X105120000Y-50455000D02*
X105993400Y-50455000D01*
X165040000Y-110751300D02*
X166191700Y-109599600D01*
X165040000Y-111615000D02*
X165040000Y-110751300D01*
X150280000Y-122835000D02*
X151381700Y-122835000D01*
X151381700Y-122835000D02*
X151837000Y-122379700D01*
X151837000Y-122379700D02*
X162925100Y-122379700D01*
X157207200Y-107805000D02*
X147854400Y-98452200D01*
X165434100Y-107805000D02*
X157207200Y-107805000D01*
X166191700Y-109599600D02*
X166191700Y-108562600D01*
X165040000Y-123599900D02*
X162357700Y-120917600D01*
X88039500Y-109492800D02*
X91972900Y-109492800D01*
X133141300Y-121089400D02*
X128867100Y-121089400D01*
X127051400Y-120370700D02*
X94352300Y-120370700D01*
X165040000Y-124315000D02*
X165040000Y-123599900D01*
X162357700Y-120917600D02*
X133313100Y-120917600D01*
X133313100Y-120917600D02*
X133141300Y-121089400D01*
X80280000Y-102835000D02*
X81381700Y-102835000D01*
X81381700Y-102835000D02*
X88039500Y-109492800D01*
X106084000Y-70455000D02*
X110125100Y-74496100D01*
X163888300Y-103995000D02*
X155926300Y-96033000D01*
X110125100Y-74496100D02*
X123798900Y-74496100D01*
X155926300Y-96033000D02*
X129441100Y-96033000D01*
X165040000Y-103995000D02*
X163888300Y-103995000D01*
X105120000Y-70455000D02*
X106084000Y-70455000D01*
X150280000Y-82835000D02*
X161370700Y-82835000D01*
X139425400Y-47033600D02*
X165001400Y-47033600D01*
X165001400Y-47033600D02*
X165040000Y-46995000D01*
X135040000Y-50455000D02*
X136004000Y-50455000D01*
X136004000Y-50455000D02*
X139425400Y-47033600D01*
X142050300Y-46431900D02*
X159199500Y-46431900D01*
X137580000Y-42835000D02*
X138453400Y-42835000D01*
X138453400Y-42835000D02*
X142050300Y-46431900D01*
X142660000Y-70455000D02*
X143641800Y-70455000D01*
X162504900Y-81766200D02*
X165040000Y-84301300D01*
X160269200Y-78443500D02*
X162504900Y-80679200D01*
X143641800Y-70455000D02*
X151630300Y-78443500D01*
X151630300Y-78443500D02*
X160269200Y-78443500D01*
X162504900Y-80679200D02*
X162504900Y-81766200D01*
X165040000Y-84301300D02*
X165040000Y-85095000D01*
X145105800Y-81285400D02*
X157313300Y-81285400D01*
X157313300Y-81285400D02*
X157515300Y-81487400D01*
X142660000Y-82835000D02*
X143556200Y-82835000D01*
X143556200Y-82835000D02*
X145105800Y-81285400D01*
X151471100Y-73312700D02*
X155797700Y-73312700D01*
X155797700Y-73312700D02*
X165040000Y-82555000D01*
X148613400Y-70455000D02*
X151471100Y-73312700D01*
X147740000Y-70455000D02*
X148613400Y-70455000D01*
X165348300Y-45634800D02*
X166632700Y-46919200D01*
X140993400Y-42835000D02*
X143793200Y-45634800D01*
X166632700Y-46919200D02*
X166632700Y-53022300D01*
X143793200Y-45634800D02*
X165348300Y-45634800D01*
X166632700Y-53022300D02*
X165040000Y-54615000D01*
X140120000Y-42835000D02*
X140993400Y-42835000D01*
X138544000Y-50455000D02*
X140491300Y-48507700D01*
X140491300Y-48507700D02*
X162861000Y-48507700D01*
X163888300Y-49535000D02*
X165040000Y-49535000D01*
X137580000Y-50455000D02*
X138544000Y-50455000D01*
X162861000Y-48507700D02*
X163888300Y-49535000D01*
X163888300Y-87635000D02*
X163684700Y-87838600D01*
X165040000Y-87635000D02*
X163888300Y-87635000D01*
X163684700Y-87838600D02*
X148843400Y-87838600D01*
X137580000Y-82835000D02*
X138544000Y-82835000D01*
X138544000Y-82835000D02*
X140904500Y-80474500D01*
X140904500Y-80474500D02*
X161449200Y-80474500D01*
X138453400Y-62835000D02*
X141665900Y-66047500D01*
X149920800Y-66047500D02*
X163888300Y-80015000D01*
X137580000Y-62835000D02*
X138453400Y-62835000D01*
X141665900Y-66047500D02*
X149920800Y-66047500D01*
X163888300Y-80015000D02*
X165040000Y-80015000D01*
X140993400Y-82835000D02*
X142944800Y-80883600D01*
X140120000Y-82835000D02*
X140993400Y-82835000D01*
X142944800Y-80883600D02*
X159380100Y-80883600D01*
X159380100Y-80883600D02*
X159580200Y-81083700D01*
X142660000Y-42835000D02*
X143533400Y-42835000D01*
X143533400Y-42835000D02*
X145731500Y-45033100D01*
X145731500Y-45033100D02*
X159085200Y-45033100D01*
X140120000Y-50455000D02*
X141084000Y-50455000D01*
X151673500Y-48909400D02*
X153452500Y-50688400D01*
X153452500Y-50688400D02*
X165528800Y-50688400D01*
X141084000Y-50455000D02*
X142629600Y-48909400D01*
X142629600Y-48909400D02*
X151673500Y-48909400D01*
X166231000Y-48791600D02*
X166021200Y-48581800D01*
X165528800Y-50688400D02*
X166231000Y-49986200D01*
X166231000Y-49986200D02*
X166231000Y-48791600D01*
X143533400Y-62835000D02*
X144973200Y-64274800D01*
X142660000Y-62835000D02*
X143533400Y-62835000D01*
X163888300Y-74935000D02*
X165040000Y-74935000D01*
X144973200Y-64274800D02*
X153228100Y-64274800D01*
X153228100Y-64274800D02*
X163888300Y-74935000D01*
X163888300Y-77475000D02*
X165040000Y-77475000D01*
X140993400Y-62835000D02*
X143763000Y-65604600D01*
X152017900Y-65604600D02*
X163888300Y-77475000D01*
X143763000Y-65604600D02*
X152017900Y-65604600D01*
X140120000Y-62835000D02*
X140993400Y-62835000D01*
X45040000Y-82835000D02*
X46141700Y-82835000D01*
X57066500Y-82835000D02*
X57504500Y-82397000D01*
X46141700Y-82835000D02*
X57066500Y-82835000D01*
X60986100Y-78360700D02*
X59145700Y-76520300D01*
X56971700Y-73494500D02*
X56971700Y-74346300D01*
X92152200Y-78360700D02*
X60986100Y-78360700D01*
X45040000Y-70135000D02*
X53612200Y-70135000D01*
X105231900Y-81280300D02*
X94351000Y-81280300D01*
X107660000Y-82835000D02*
X106786600Y-82835000D01*
X53612200Y-70135000D02*
X56971700Y-73494500D01*
X106786600Y-82835000D02*
X105231900Y-81280300D01*
X67104600Y-89330800D02*
X87804500Y-89330800D01*
X55846900Y-75125000D02*
X53396900Y-72675000D01*
X59713100Y-87272200D02*
X63997600Y-91556700D01*
X87804500Y-89330800D02*
X89609100Y-91135400D01*
X66168400Y-91410400D02*
X66168400Y-90267000D01*
X89609100Y-91135400D02*
X91864400Y-91135400D01*
X66022100Y-91556700D02*
X66168400Y-91410400D01*
X53396900Y-72675000D02*
X46141700Y-72675000D01*
X92523600Y-90476200D02*
X92523600Y-90359500D01*
X63997600Y-91556700D02*
X66022100Y-91556700D01*
X66168400Y-90267000D02*
X67104600Y-89330800D01*
X92523600Y-90359500D02*
X92523700Y-90359500D01*
X45040000Y-72675000D02*
X46141700Y-72675000D01*
X91864400Y-91135400D02*
X92523600Y-90476200D01*
X45040000Y-90455000D02*
X46141700Y-90455000D01*
X65040000Y-110455000D02*
X62046400Y-110455000D01*
X62046400Y-110455000D02*
X58869900Y-107278500D01*
X46141700Y-90455000D02*
X47372400Y-91685700D01*
X47372400Y-91685700D02*
X56960400Y-91685700D01*
X109326600Y-82835000D02*
X107368700Y-80877100D01*
X91593000Y-74422700D02*
X58881700Y-74422700D01*
X107368700Y-80877100D02*
X96036200Y-80877100D01*
X110200000Y-82835000D02*
X109326600Y-82835000D01*
X57119300Y-70878500D02*
X57119300Y-72617300D01*
X96036200Y-80877100D02*
X94335800Y-79176700D01*
X53835800Y-67595000D02*
X57119300Y-70878500D01*
X94335800Y-79176700D02*
X94335800Y-78374200D01*
X45040000Y-67595000D02*
X53835800Y-67595000D01*
X45040000Y-85375000D02*
X45040000Y-84411000D01*
X45040000Y-84411000D02*
X43893700Y-83264700D01*
X44557400Y-81718200D02*
X57009900Y-81718200D01*
X43893700Y-83264700D02*
X43893700Y-82381900D01*
X43893700Y-82381900D02*
X44557400Y-81718200D01*
X63348000Y-42994300D02*
X38552100Y-42994300D01*
X57507700Y-75915300D02*
X48305800Y-75915300D01*
X92375400Y-77132200D02*
X60628400Y-77132200D01*
X125290700Y-68277000D02*
X104054500Y-68277000D01*
X39623400Y-73776700D02*
X38521700Y-72675000D01*
X37420000Y-72675000D02*
X38521700Y-72675000D01*
X144081500Y-61716500D02*
X145200000Y-62835000D01*
X104054500Y-68277000D02*
X103692100Y-68639400D01*
X46167200Y-73776700D02*
X39623400Y-73776700D01*
X48305800Y-75915300D02*
X46167200Y-73776700D01*
X129856800Y-61716500D02*
X144081500Y-61716500D01*
X91543300Y-76376900D02*
X90292300Y-75125900D01*
X37950000Y-68865000D02*
X40565300Y-71480300D01*
X40565300Y-71480300D02*
X54094300Y-71480300D01*
X104156000Y-90455000D02*
X99934000Y-86233000D01*
X37420000Y-62515000D02*
X37420000Y-63616700D01*
X37420000Y-63616700D02*
X37191700Y-63616700D01*
X105120000Y-90455000D02*
X104156000Y-90455000D01*
X37191700Y-63616700D02*
X36261300Y-64547100D01*
X37033000Y-68865000D02*
X37950000Y-68865000D01*
X36261300Y-68093300D02*
X37033000Y-68865000D01*
X36261300Y-64547100D02*
X36261300Y-68093300D01*
X99934000Y-86233000D02*
X95130700Y-86233000D01*
X90292300Y-75125900D02*
X59343900Y-75125900D01*
X54094300Y-71480300D02*
X55839100Y-73225100D01*
X66714400Y-109589400D02*
X66230600Y-109589400D01*
X59680800Y-106504100D02*
X63145300Y-106504100D01*
X45040000Y-87915000D02*
X46141700Y-87915000D01*
X63145300Y-106504100D02*
X66230600Y-109589400D01*
X46141700Y-87915000D02*
X48061200Y-89834500D01*
X67580000Y-110455000D02*
X66714400Y-109589400D01*
X48061200Y-89834500D02*
X56830400Y-89834500D01*
X37420000Y-67595000D02*
X38521700Y-67595000D01*
X42351800Y-63764900D02*
X56957900Y-63764900D01*
X38521700Y-67595000D02*
X42351800Y-63764900D01*
X112049200Y-82144200D02*
X111175800Y-82144200D01*
X43937100Y-68074700D02*
X44727400Y-68865000D01*
X107914700Y-78883100D02*
X94962300Y-78883100D01*
X45040000Y-66019000D02*
X43937100Y-67121900D01*
X54222400Y-68865000D02*
X55835800Y-70478400D01*
X45040000Y-65055000D02*
X45040000Y-66019000D01*
X112740000Y-82835000D02*
X112049200Y-82144200D01*
X92121400Y-73371300D02*
X58877000Y-73371300D01*
X44727400Y-68865000D02*
X54222400Y-68865000D01*
X43937100Y-67121900D02*
X43937100Y-68074700D01*
X111175800Y-82144200D02*
X107914700Y-78883100D01*
X46141700Y-75215000D02*
X47761800Y-76835100D01*
X98761300Y-87120100D02*
X96133200Y-87120100D01*
X61330000Y-80769500D02*
X60038500Y-79478000D01*
X92157700Y-80769500D02*
X61330000Y-80769500D01*
X102096200Y-90455000D02*
X98761300Y-87120100D01*
X47761800Y-76835100D02*
X57395600Y-76835100D01*
X102580000Y-90455000D02*
X102096200Y-90455000D01*
X45040000Y-75215000D02*
X46141700Y-75215000D01*
X108533400Y-70455000D02*
X111056000Y-72977600D01*
X44735400Y-86645000D02*
X53931500Y-86645000D01*
X45040000Y-80295000D02*
X43445900Y-81889100D01*
X66310000Y-82467400D02*
X67457800Y-81319600D01*
X57395800Y-89144700D02*
X57535000Y-89283900D01*
X147341100Y-97086100D02*
X128906300Y-97086100D01*
X43445900Y-81889100D02*
X43445900Y-85355500D01*
X107660000Y-70455000D02*
X108533400Y-70455000D01*
X84455800Y-81319600D02*
X84514300Y-81378100D01*
X92985500Y-80794800D02*
X92985500Y-79357400D01*
X84514300Y-81378100D02*
X92402200Y-81378100D01*
X56431200Y-89144700D02*
X57395800Y-89144700D01*
X92402200Y-81378100D02*
X92985500Y-80794800D01*
X65040000Y-86856800D02*
X66310000Y-85586800D01*
X111056000Y-72977600D02*
X123187600Y-72977600D01*
X66310000Y-85586800D02*
X66310000Y-82467400D01*
X67457800Y-81319600D02*
X84455800Y-81319600D01*
X53931500Y-86645000D02*
X56431200Y-89144700D01*
X65040000Y-90455000D02*
X65040000Y-86856800D01*
X43445900Y-85355500D02*
X44735400Y-86645000D01*
X42396400Y-61180300D02*
X56348600Y-61180300D01*
X91794300Y-56979800D02*
X92660900Y-57846400D01*
X103543900Y-62835000D02*
X104645600Y-63936700D01*
X123134300Y-63936700D02*
X125925500Y-66727900D01*
X92660900Y-57846400D02*
X92660900Y-58807900D01*
X37420000Y-65055000D02*
X38521700Y-65055000D01*
X125925500Y-66727900D02*
X125925500Y-70076500D01*
X38521700Y-65055000D02*
X42396400Y-61180300D01*
X72528800Y-56979800D02*
X91794300Y-56979800D01*
X104645600Y-63936700D02*
X123134300Y-63936700D01*
X92660900Y-58807900D02*
X92519000Y-58949800D01*
X144326600Y-90455000D02*
X143224900Y-89353300D01*
X143224900Y-89353300D02*
X131337800Y-89353300D01*
X65040000Y-50455000D02*
X66004000Y-50455000D01*
X102580000Y-62835000D02*
X103543900Y-62835000D01*
X125925500Y-70076500D02*
X125217700Y-70784300D01*
X145200000Y-90455000D02*
X144326600Y-90455000D01*
X131337800Y-89353300D02*
X129260100Y-87275600D01*
X66004000Y-50455000D02*
X72528800Y-56979800D01*
X95955300Y-78019100D02*
X101307700Y-78019100D01*
X92177000Y-72532100D02*
X62227900Y-72532100D01*
X45040000Y-77755000D02*
X57315300Y-77755000D01*
X102442300Y-102972700D02*
X101478300Y-102972700D01*
X57439700Y-123888900D02*
X52707800Y-123888900D01*
X105120000Y-64766300D02*
X117624300Y-64766300D01*
X76470000Y-102514800D02*
X77262600Y-101722200D01*
X101478300Y-102972700D02*
X98302900Y-106148100D01*
X71852900Y-104575300D02*
X75102500Y-104575300D01*
X102580000Y-102835000D02*
X103453400Y-102835000D01*
X70120000Y-110455000D02*
X70120000Y-106308200D01*
X75102500Y-104575300D02*
X76470000Y-103207800D01*
X52707800Y-123888900D02*
X46141700Y-130455000D01*
X70120000Y-106308200D02*
X71852900Y-104575300D01*
X77262600Y-101722200D02*
X91547200Y-101722200D01*
X45040000Y-130455000D02*
X46141700Y-130455000D01*
X98302900Y-106148100D02*
X93764400Y-106148100D01*
X103453400Y-102835000D02*
X104756000Y-101532400D01*
X104756000Y-101532400D02*
X117624300Y-101532400D01*
X76470000Y-103207800D02*
X76470000Y-102514800D01*
X102580000Y-102835000D02*
X102442300Y-102972700D01*
X85104900Y-117868100D02*
X92947000Y-117868100D01*
X46141700Y-125375000D02*
X49095200Y-122421500D01*
X85104900Y-117868100D02*
X58933200Y-117868100D01*
X45040000Y-125375000D02*
X46141700Y-125375000D01*
X49095200Y-122421500D02*
X56405000Y-122421500D01*
X75200000Y-62835000D02*
X76164000Y-62835000D01*
X77538500Y-64209500D02*
X81510600Y-64209500D01*
X60786700Y-139690200D02*
X83850200Y-139690200D01*
X50811700Y-130125300D02*
X56997000Y-130125300D01*
X83850200Y-139690200D02*
X101251500Y-139690200D01*
X76164000Y-62835000D02*
X77538500Y-64209500D01*
X101003900Y-130455000D02*
X102567600Y-132018700D01*
X76470000Y-122503300D02*
X76470000Y-123169300D01*
X45040000Y-120295000D02*
X57407400Y-120295000D01*
X102567600Y-132018700D02*
X126033800Y-132018700D01*
X140791300Y-108819700D02*
X140190200Y-108819700D01*
X83989400Y-130688700D02*
X98203700Y-130688700D01*
X126033800Y-132018700D02*
X130766600Y-127285900D01*
X58861500Y-120034800D02*
X74001500Y-120034800D01*
X74001500Y-120034800D02*
X76470000Y-122503300D01*
X76470000Y-123169300D02*
X83989400Y-130688700D01*
X147740000Y-102835000D02*
X146776000Y-102835000D01*
X100040000Y-130455000D02*
X101003900Y-130455000D01*
X146776000Y-102835000D02*
X140791300Y-108819700D01*
X71558300Y-111882700D02*
X92971000Y-111882700D01*
X102580000Y-110455000D02*
X103453400Y-110455000D01*
X103453400Y-110455000D02*
X104893200Y-109015200D01*
X72258300Y-110455000D02*
X71558300Y-111155000D01*
X71558300Y-111882700D02*
X71558300Y-111155000D01*
X59680800Y-111882700D02*
X71558300Y-111882700D01*
X46141700Y-127915000D02*
X50995500Y-123061200D01*
X121425600Y-109015200D02*
X126540200Y-103900600D01*
X104893200Y-109015200D02*
X121425600Y-109015200D01*
X45040000Y-127915000D02*
X46141700Y-127915000D01*
X72660000Y-110455000D02*
X72258300Y-110455000D01*
X50995500Y-123061200D02*
X57283300Y-123061200D01*
X126540200Y-103900600D02*
X126810000Y-103900600D01*
X138264300Y-126572700D02*
X136212400Y-128624600D01*
X137593000Y-147050900D02*
X136212400Y-147050900D01*
X127650700Y-152418300D02*
X127650800Y-152418200D01*
X122985600Y-152348200D02*
X125776200Y-152348200D01*
X125776200Y-152348200D02*
X125846300Y-152418300D01*
X115460100Y-152311700D02*
X122949100Y-152311700D01*
X143930000Y-126572700D02*
X138264300Y-126572700D01*
X113603400Y-150455000D02*
X115460100Y-152311700D01*
X127650800Y-152418200D02*
X133478000Y-152418200D01*
X125846300Y-152418300D02*
X127650700Y-152418300D01*
X137934500Y-147961700D02*
X137934500Y-147392400D01*
X112660000Y-150455000D02*
X113603400Y-150455000D01*
X137934500Y-147392400D02*
X137593000Y-147050900D01*
X122949100Y-152311700D02*
X122985600Y-152348200D01*
X133478000Y-152418200D02*
X137934500Y-147961700D01*
X122616500Y-153115100D02*
X122118100Y-153115100D01*
X121918100Y-153315100D02*
X100022100Y-153315100D01*
X65388600Y-152596700D02*
X65268800Y-152476900D01*
X65028800Y-152476900D02*
X63922600Y-151370700D01*
X63922600Y-149501000D02*
X67991800Y-145431800D01*
X122118100Y-153115100D02*
X121918100Y-153315100D01*
X68195500Y-152949900D02*
X67840200Y-152594600D01*
X99656900Y-152949900D02*
X68195500Y-152949900D01*
X67172900Y-152596700D02*
X65388600Y-152596700D01*
X67991800Y-145431800D02*
X69405700Y-145431800D01*
X67175000Y-152594600D02*
X67172900Y-152596700D01*
X100022100Y-153315100D02*
X99656900Y-152949900D01*
X122853000Y-153351600D02*
X122616500Y-153115100D01*
X63922600Y-151370700D02*
X63922600Y-149501000D01*
X67840200Y-152594600D02*
X67175000Y-152594600D01*
X65268800Y-152476900D02*
X65028800Y-152476900D01*
X125360700Y-153351600D02*
X122853000Y-153351600D01*
X118730500Y-147797900D02*
X126463000Y-147797900D01*
X116073400Y-150455000D02*
X118730500Y-147797900D01*
X115200000Y-150455000D02*
X116073400Y-150455000D01*
X118226100Y-75097800D02*
X127536700Y-75097800D01*
X68006500Y-152192900D02*
X67691000Y-152192900D01*
X122819300Y-152749900D02*
X122782800Y-152713400D01*
X127898400Y-153021500D02*
X125881500Y-153021500D01*
X125881500Y-153021500D02*
X125609900Y-152749900D01*
X125609900Y-152749900D02*
X122819300Y-152749900D01*
X127900000Y-153019900D02*
X127898400Y-153021500D01*
X68326100Y-152512500D02*
X68006500Y-152192900D01*
X122782800Y-152713400D02*
X121951800Y-152713400D01*
X100024900Y-152749900D02*
X99787500Y-152512500D01*
X66460200Y-150962100D02*
X66460200Y-148706800D01*
X67691000Y-152192900D02*
X66460200Y-150962100D01*
X121951800Y-152713400D02*
X121915300Y-152749900D01*
X99787500Y-152512500D02*
X68326100Y-152512500D01*
X121915300Y-152749900D02*
X100024900Y-152749900D01*
X66460200Y-148706800D02*
X68489300Y-146677700D01*
X68489300Y-146677700D02*
X70920200Y-146677700D01*
X121153400Y-150455000D02*
X122798200Y-148810200D01*
X141224600Y-103568400D02*
X136168400Y-108624600D01*
X141224600Y-102373900D02*
X141224600Y-103568400D01*
X138757800Y-101657200D02*
X140507900Y-101657200D01*
X130972600Y-148810200D02*
X131173500Y-148609300D01*
X122798200Y-148810200D02*
X130972600Y-148810200D01*
X120280000Y-150455000D02*
X121153400Y-150455000D01*
X137580000Y-102835000D02*
X138757800Y-101657200D01*
X140507900Y-101657200D02*
X141224600Y-102373900D01*
X110155600Y-149317700D02*
X110120000Y-149353300D01*
X110155600Y-148615800D02*
X110155600Y-149317700D01*
X110120000Y-150455000D02*
X110120000Y-149353300D01*
X107580000Y-150455000D02*
X107580000Y-149353300D01*
X107580000Y-149353300D02*
X108251900Y-148681400D01*
X108251900Y-148681400D02*
X108251900Y-148614700D01*
X120752500Y-148408500D02*
X128780200Y-148408500D01*
X117740000Y-150455000D02*
X118706000Y-150455000D01*
X118706000Y-150455000D02*
X120752500Y-148408500D01*
X128780200Y-148408500D02*
X129006900Y-148181800D01*
X127497900Y-76432500D02*
X124938700Y-78991700D01*
X124938700Y-78991700D02*
X119409600Y-78991700D01*
X111164000Y-122835000D02*
X112301900Y-123972900D01*
X110200000Y-122835000D02*
X111164000Y-122835000D01*
X112301900Y-123972900D02*
X123597900Y-123972900D01*
X106504300Y-128563800D02*
X106428700Y-128639400D01*
X105349600Y-149043700D02*
X105349600Y-148615100D01*
X105040000Y-150455000D02*
X105040000Y-149353300D01*
X117656000Y-128563800D02*
X106504300Y-128563800D01*
X105040000Y-149353300D02*
X105349600Y-149043700D01*
X66004000Y-130455000D02*
X74583400Y-139034400D01*
X127900000Y-142835000D02*
X126936100Y-142835000D01*
X74583400Y-139034400D02*
X103982600Y-139034400D01*
X125834400Y-141733300D02*
X106116100Y-141733300D01*
X65040000Y-130455000D02*
X66004000Y-130455000D01*
X126936100Y-142835000D02*
X125834400Y-141733300D01*
X67580000Y-130455000D02*
X68453400Y-130455000D01*
X68453400Y-130455000D02*
X76094100Y-138095700D01*
X130440000Y-142835000D02*
X129476000Y-142835000D01*
X76094100Y-138095700D02*
X103726200Y-138095700D01*
X129476000Y-142835000D02*
X124372700Y-137731700D01*
X124372700Y-137731700D02*
X105275600Y-137731700D01*
X125360000Y-150455000D02*
X126332900Y-150455000D01*
X129812500Y-146394400D02*
X107564900Y-146394400D01*
X131783300Y-150674900D02*
X131783300Y-148365200D01*
X130849600Y-151608600D02*
X131783300Y-150674900D01*
X131783300Y-148365200D02*
X129812500Y-146394400D01*
X127486500Y-151608600D02*
X130849600Y-151608600D01*
X107564900Y-146394400D02*
X105926200Y-144755700D01*
X105926200Y-144755700D02*
X73984100Y-144755700D01*
X126332900Y-150455000D02*
X127486500Y-151608600D01*
X122820000Y-150455000D02*
X123784000Y-150455000D01*
X133033200Y-152010300D02*
X137332700Y-147710800D01*
X137332700Y-147710800D02*
X137332700Y-147652700D01*
X125942500Y-151946500D02*
X126006300Y-152010300D01*
X123784000Y-150455000D02*
X125275500Y-151946500D01*
X126006300Y-152010300D02*
X133033200Y-152010300D01*
X125275500Y-151946500D02*
X125942500Y-151946500D01*
X76470000Y-130134500D02*
X76470000Y-130762400D01*
X67580000Y-122835000D02*
X68453400Y-122835000D01*
X76470000Y-130762400D02*
X82254400Y-136546800D01*
X68453400Y-122835000D02*
X69893200Y-124274800D01*
X124852700Y-135671700D02*
X103210800Y-135671700D01*
X82254400Y-136546800D02*
X102187300Y-136546800D01*
X69893200Y-124274800D02*
X70610300Y-124274800D01*
X132016000Y-142835000D02*
X124852700Y-135671700D01*
X132980000Y-142835000D02*
X132016000Y-142835000D01*
X70610300Y-124274800D02*
X76470000Y-130134500D01*
X75200000Y-82835000D02*
X76481100Y-84116100D01*
X70120000Y-62835000D02*
X70120000Y-63936700D01*
X70120000Y-64660700D02*
X74098300Y-68639000D01*
X70120000Y-63936700D02*
X70120000Y-64660700D01*
X76481100Y-84116100D02*
X85706600Y-84116100D01*
X67580000Y-62835000D02*
X67580000Y-63936700D01*
X68850000Y-68625900D02*
X68850000Y-65206700D01*
X73559500Y-87941100D02*
X82650700Y-87941100D01*
X68850000Y-65206700D02*
X67580000Y-63936700D01*
X67580000Y-82835000D02*
X68453400Y-82835000D01*
X68453400Y-82835000D02*
X73559500Y-87941100D01*
X101141700Y-128620300D02*
X105142300Y-124619700D01*
X73624000Y-150455000D02*
X74744200Y-151575200D01*
X102628500Y-150258900D02*
X102628500Y-149653100D01*
X101312200Y-151575200D02*
X102628500Y-150258900D01*
X74744200Y-151575200D02*
X101312200Y-151575200D01*
X102628500Y-149653100D02*
X100130300Y-147154900D01*
X100130300Y-147154900D02*
X99574400Y-147154900D01*
X105142300Y-124619700D02*
X120764800Y-124619700D01*
X72660000Y-150455000D02*
X73624000Y-150455000D01*
X68359800Y-146033500D02*
X89135600Y-146033500D01*
X89332100Y-126846200D02*
X97681000Y-126846200D01*
X65040000Y-150455000D02*
X65040000Y-149353300D01*
X65040000Y-149353300D02*
X68359800Y-146033500D01*
X89135600Y-146033500D02*
X89332100Y-145837000D01*
X71016800Y-150455000D02*
X72538700Y-151976900D01*
X111390000Y-150163500D02*
X112342800Y-149210700D01*
X110182400Y-151976900D02*
X111390000Y-150769300D01*
X113181500Y-149210700D02*
X115381000Y-147011200D01*
X112342800Y-149210700D02*
X113181500Y-149210700D01*
X70120000Y-150455000D02*
X71016800Y-150455000D01*
X72538700Y-151976900D02*
X110182400Y-151976900D01*
X111390000Y-150769300D02*
X111390000Y-150163500D01*
X115381000Y-147011200D02*
X125417100Y-147011200D01*
X99569500Y-128385500D02*
X99569500Y-128621200D01*
X67580000Y-150455000D02*
X68453400Y-150455000D01*
X68453400Y-150455000D02*
X70334500Y-148573900D01*
X70334500Y-148573900D02*
X96106400Y-148573900D01*
X105120000Y-122835000D02*
X99569500Y-128385500D01*
X80280000Y-122835000D02*
X86313400Y-122835000D01*
X105358100Y-46577100D02*
X93881400Y-46577100D01*
X110200000Y-50455000D02*
X109236000Y-50455000D01*
X109236000Y-50455000D02*
X105358100Y-46577100D01*
X72660000Y-122835000D02*
X72660000Y-124273300D01*
X77740000Y-130455000D02*
X77740000Y-129353300D01*
X72660000Y-124273300D02*
X77740000Y-129353300D01*
X72199100Y-121719900D02*
X71084000Y-122835000D01*
X75200000Y-122835000D02*
X74326600Y-122835000D01*
X73211500Y-121719900D02*
X72199100Y-121719900D01*
X71084000Y-122835000D02*
X70120000Y-122835000D01*
X74326600Y-122835000D02*
X73211500Y-121719900D01*
X77740000Y-122835000D02*
X78613400Y-122835000D01*
X114316000Y-122835000D02*
X113158000Y-121677000D01*
X78613400Y-122835000D02*
X79732300Y-123953900D01*
X115280000Y-122835000D02*
X114316000Y-122835000D01*
X79732300Y-123953900D02*
X92582900Y-123953900D01*
X113158000Y-121677000D02*
X94859800Y-121677000D01*
X70993400Y-102835000D02*
X73916500Y-99911900D01*
X70120000Y-102835000D02*
X70993400Y-102835000D01*
X73916500Y-99911900D02*
X78401500Y-99911900D01*
X76776000Y-110455000D02*
X72219900Y-105898900D01*
X77740000Y-110455000D02*
X76776000Y-110455000D01*
X72219900Y-105898900D02*
X71481100Y-105898900D01*
X67954900Y-87121700D02*
X66459700Y-88616900D01*
X71479500Y-87121700D02*
X67954900Y-87121700D01*
X81381700Y-82835000D02*
X81762300Y-82454400D01*
X97939500Y-42963800D02*
X84105700Y-42963800D01*
X81762300Y-82454400D02*
X84105700Y-82454400D01*
X80280000Y-82835000D02*
X81381700Y-82835000D01*
X135040000Y-130455000D02*
X136004000Y-130455000D01*
X142183800Y-128877100D02*
X141548900Y-128877100D01*
X95664400Y-95966100D02*
X116003200Y-95966100D01*
X116003200Y-95966100D02*
X122951400Y-95966100D01*
X134755000Y-100967700D02*
X128890600Y-100967700D01*
X122951400Y-95966100D02*
X123884100Y-95033400D01*
X150280000Y-102835000D02*
X148412600Y-100967600D01*
X136478300Y-103291400D02*
X136478300Y-102691000D01*
X142660000Y-110455000D02*
X142660000Y-109819400D01*
X78781300Y-93072300D02*
X92538100Y-93072300D01*
X141548900Y-128877100D02*
X141548900Y-127293100D01*
X145665000Y-100967600D02*
X128890600Y-100967600D01*
X137123600Y-103936700D02*
X136478300Y-103291400D01*
X142660000Y-129353300D02*
X142183800Y-128877100D01*
X149644400Y-102835000D02*
X150280000Y-102835000D01*
X148412600Y-100967600D02*
X145665000Y-100967600D01*
X138036400Y-103936700D02*
X137123600Y-103936700D01*
X136478300Y-102691000D02*
X134755000Y-100967700D01*
X142660000Y-109819400D02*
X149644400Y-102835000D01*
X75200000Y-90455000D02*
X76164000Y-90455000D01*
X136004000Y-130455000D02*
X137581900Y-128877100D01*
X142660000Y-130455000D02*
X142660000Y-129353300D01*
X137581900Y-128877100D02*
X141548900Y-128877100D01*
X128890600Y-100967700D02*
X128890600Y-100967600D01*
X140120000Y-102835000D02*
X139138100Y-102835000D01*
X76164000Y-90455000D02*
X78781300Y-93072300D01*
X139138100Y-102835000D02*
X138036400Y-103936700D01*
X146776000Y-110455000D02*
X145670700Y-111560300D01*
X71138900Y-82762300D02*
X72168000Y-81733200D01*
X72168000Y-81733200D02*
X75702800Y-81733200D01*
X138681700Y-110683300D02*
X138665000Y-110700000D01*
X77740000Y-82835000D02*
X76804600Y-82835000D01*
X147740000Y-110455000D02*
X146776000Y-110455000D01*
X75419400Y-87255200D02*
X88286100Y-87255200D01*
X138665000Y-110700000D02*
X137398000Y-111967000D01*
X137580000Y-110455000D02*
X138420000Y-110455000D01*
X139558700Y-111560300D02*
X138681700Y-110683300D01*
X70120000Y-82835000D02*
X71138900Y-82835000D01*
X88286100Y-87255200D02*
X91564500Y-90533600D01*
X145670700Y-111560300D02*
X139558700Y-111560300D01*
X71138900Y-82974700D02*
X75419400Y-87255200D01*
X122240500Y-102904600D02*
X120265800Y-100929900D01*
X71138900Y-82835000D02*
X71138900Y-82974700D01*
X138420000Y-110455000D02*
X138665000Y-110700000D01*
X75702800Y-81733200D02*
X76804600Y-82835000D01*
X71138900Y-82835000D02*
X71138900Y-82762300D01*
X137398000Y-111967000D02*
X128882400Y-111967000D01*
X120265800Y-100929900D02*
X97120900Y-100929900D01*
X111866600Y-110455000D02*
X110755600Y-111566000D01*
X73624000Y-90455000D02*
X77095500Y-93926500D01*
X77095500Y-93926500D02*
X91725400Y-93926500D01*
X110755600Y-111566000D02*
X99113500Y-111566000D01*
X99113500Y-111566000D02*
X95426700Y-107879200D01*
X72660000Y-90455000D02*
X73624000Y-90455000D01*
X112740000Y-110455000D02*
X111866600Y-110455000D01*
X95426700Y-107879200D02*
X95426700Y-107277300D01*
X75200000Y-70455000D02*
X75200000Y-71143300D01*
X75665000Y-71608300D02*
X92183700Y-71608300D01*
X75200000Y-71143300D02*
X75665000Y-71608300D01*
X92183700Y-71608300D02*
X92569400Y-71222600D01*
X140120000Y-110455000D02*
X138899700Y-109234700D01*
X121450300Y-77105500D02*
X97244700Y-77105500D01*
X138899700Y-109234700D02*
X128946400Y-109234700D01*
X72660000Y-62835000D02*
X73581700Y-62835000D01*
X73761700Y-62606700D02*
X78264000Y-58104400D01*
X73581700Y-62835000D02*
X73761700Y-62655000D01*
X73761700Y-62655000D02*
X73761700Y-62606700D01*
X78264000Y-58104400D02*
X92059100Y-58104400D01*
X75675400Y-47288700D02*
X77740000Y-49353300D01*
X77740000Y-50455000D02*
X77740000Y-49353300D01*
X147740000Y-90455000D02*
X146233900Y-88948900D01*
X133564000Y-88948900D02*
X131904500Y-87289400D01*
X91557300Y-69376600D02*
X88826400Y-66645700D01*
X88826400Y-66645700D02*
X76470000Y-66645700D01*
X146233900Y-88948900D02*
X133564000Y-88948900D01*
X126327200Y-76491100D02*
X95665700Y-76491100D01*
X126498700Y-76319600D02*
X126327200Y-76491100D01*
X103850000Y-70764400D02*
X103049300Y-71565100D01*
X94903000Y-67376500D02*
X94903000Y-67278100D01*
X110763000Y-69351400D02*
X104646300Y-69351400D01*
X99091600Y-71565100D02*
X94903000Y-67376500D01*
X103850000Y-70147700D02*
X103850000Y-70764400D01*
X103049300Y-71565100D02*
X99091600Y-71565100D01*
X83179600Y-63247700D02*
X91968400Y-63247700D01*
X111866600Y-70455000D02*
X110763000Y-69351400D01*
X104646300Y-69351400D02*
X103850000Y-70147700D01*
X112740000Y-70455000D02*
X111866600Y-70455000D01*
X147740000Y-62835000D02*
X146837400Y-62835000D01*
X126190300Y-57115900D02*
X94578400Y-57115900D01*
X70120000Y-42835000D02*
X71083900Y-42835000D01*
X146837400Y-62835000D02*
X144906300Y-60903900D01*
X144906300Y-60903900D02*
X129978300Y-60903900D01*
X83127500Y-51165000D02*
X92172000Y-51165000D01*
X71083900Y-42835000D02*
X72185600Y-43936700D01*
X75899200Y-43936700D02*
X83127500Y-51165000D01*
X72185600Y-43936700D02*
X75899200Y-43936700D01*
X77007100Y-56378100D02*
X91565800Y-56378100D01*
X95504700Y-66132200D02*
X114380000Y-66132200D01*
X70120000Y-50455000D02*
X71084000Y-50455000D01*
X71084000Y-50455000D02*
X77007100Y-56378100D01*
X85420200Y-49551200D02*
X91925200Y-49551200D01*
X114298200Y-62835000D02*
X109183000Y-57719800D01*
X78704000Y-42835000D02*
X85420200Y-49551200D01*
X115280000Y-62835000D02*
X114298200Y-62835000D01*
X77740000Y-42835000D02*
X78704000Y-42835000D01*
X109183000Y-57719800D02*
X95374500Y-57719800D01*
X106738300Y-62835000D02*
X106558300Y-62655000D01*
X107660000Y-62835000D02*
X106738300Y-62835000D01*
X75178700Y-52009700D02*
X91961500Y-52009700D01*
X94242200Y-58560600D02*
X102512200Y-58560600D01*
X106558300Y-62606700D02*
X106558300Y-62655000D01*
X72660000Y-50455000D02*
X73624000Y-50455000D01*
X102512200Y-58560600D02*
X106558300Y-62606700D01*
X73624000Y-50455000D02*
X75178700Y-52009700D01*
X110455400Y-48170400D02*
X110455400Y-48636900D01*
X105120000Y-42835000D02*
X110455400Y-48170400D01*
X109007800Y-55918800D02*
X120731500Y-55918800D01*
X103544000Y-50455000D02*
X109007800Y-55918800D01*
X102580000Y-50455000D02*
X103544000Y-50455000D01*
X113704000Y-50455000D02*
X115544000Y-52295000D01*
X115544000Y-52295000D02*
X124261100Y-52295000D01*
X112740000Y-50455000D02*
X113704000Y-50455000D01*
X102580000Y-43936700D02*
X103681700Y-43936700D01*
X114831100Y-131617000D02*
X122461800Y-131617000D01*
X102580000Y-42835000D02*
X102580000Y-43936700D01*
X112740000Y-130455000D02*
X113669100Y-130455000D01*
X113669100Y-130455000D02*
X114831100Y-131617000D01*
X103681700Y-43936700D02*
X104312800Y-44567800D01*
X122461800Y-131617000D02*
X124804900Y-129273900D01*
X132880200Y-122700400D02*
X129748600Y-122700400D01*
X107660000Y-50455000D02*
X111427400Y-54222400D01*
X111427400Y-54222400D02*
X119229500Y-54222400D01*
X140120000Y-122835000D02*
X139006000Y-121721000D01*
X139006000Y-121721000D02*
X133859600Y-121721000D01*
X133859600Y-121721000D02*
X132880200Y-122700400D01*
X114010000Y-70769300D02*
X114798700Y-71558000D01*
X102857300Y-70455000D02*
X104413800Y-68898500D01*
X114798700Y-71558000D02*
X127001700Y-71558000D01*
X102580000Y-70455000D02*
X102857300Y-70455000D01*
X130255600Y-67347100D02*
X128971400Y-68631300D01*
X112748500Y-68898500D02*
X114010000Y-70160000D01*
X149296300Y-67347100D02*
X130255600Y-67347100D01*
X104413800Y-68898500D02*
X112748500Y-68898500D01*
X114010000Y-70160000D02*
X114010000Y-70769300D01*
X145292900Y-52028700D02*
X129104600Y-52028700D01*
X147740000Y-50455000D02*
X146866600Y-50455000D01*
X101483450Y-69973450D02*
X104480200Y-66976700D01*
X100040000Y-70455000D02*
X100521550Y-69973450D01*
X146866600Y-50455000D02*
X145292900Y-52028700D01*
X104480200Y-66976700D02*
X125274600Y-66976700D01*
X100521550Y-69973450D02*
X101483450Y-69973450D01*
X105120000Y-83936700D02*
X105120000Y-82835000D01*
X110200000Y-90455000D02*
X109326600Y-90455000D01*
X106221700Y-85038400D02*
X105120000Y-83936700D01*
X106221700Y-90580100D02*
X106221700Y-85038400D01*
X108173400Y-91608200D02*
X107249800Y-91608200D01*
X109326600Y-90455000D02*
X108173400Y-91608200D01*
X107249800Y-91608200D02*
X106221700Y-90580100D01*
X107660000Y-90455000D02*
X115280000Y-82835000D01*
X107660000Y-104920800D02*
X103945500Y-108635300D01*
X107660000Y-102835000D02*
X107660000Y-104920800D01*
X111181900Y-130455000D02*
X112318400Y-129318500D01*
X112318400Y-129318500D02*
X118433200Y-129318500D01*
X110200000Y-130455000D02*
X111181900Y-130455000D01*
X142164400Y-123942400D02*
X141390000Y-123168000D01*
X140168300Y-121319300D02*
X133479500Y-121319300D01*
X145200000Y-122835000D02*
X144236000Y-122835000D01*
X141390000Y-122541000D02*
X140168300Y-121319300D01*
X141390000Y-123168000D02*
X141390000Y-122541000D01*
X143128600Y-123942400D02*
X142164400Y-123942400D01*
X133077800Y-121721000D02*
X130630200Y-121721000D01*
X115280000Y-102835000D02*
X120614700Y-102835000D01*
X144236000Y-122835000D02*
X143128600Y-123942400D01*
X133479500Y-121319300D02*
X133077800Y-121721000D01*
X107660000Y-130455000D02*
X105120000Y-130455000D01*
X141090100Y-133001100D02*
X152140000Y-133001100D01*
X138544000Y-130455000D02*
X141090100Y-133001100D01*
X140993400Y-70455000D02*
X142104400Y-69344000D01*
X142104400Y-69344000D02*
X151909800Y-69344000D01*
X137580000Y-130455000D02*
X138544000Y-130455000D01*
X140120000Y-70455000D02*
X140993400Y-70455000D01*
X151909800Y-69344000D02*
X152140000Y-69574200D01*
X145815300Y-127428600D02*
X147740000Y-129353300D01*
X147740000Y-122835000D02*
X147324400Y-122835000D01*
X140053100Y-124344100D02*
X145815300Y-124344100D01*
X147740000Y-130455000D02*
X147740000Y-129353300D01*
X145815300Y-124344100D02*
X145815300Y-127428600D01*
X138544000Y-122835000D02*
X140053100Y-124344100D01*
X147324400Y-122835000D02*
X145815300Y-124344100D01*
X137580000Y-122835000D02*
X138544000Y-122835000D01*
X142660000Y-90455000D02*
X140120000Y-90455000D01*
M02*
