G04 #@! TF.GenerationSoftware,KiCad,Pcbnew,8.0.8*
G04 #@! TF.CreationDate,2025-03-04T12:46:17-07:00*
G04 #@! TF.ProjectId,Decoder,4465636f-6465-4722-9e6b-696361645f70,0*
G04 #@! TF.SameCoordinates,Original*
G04 #@! TF.FileFunction,Copper,L2,Bot*
G04 #@! TF.FilePolarity,Positive*
%FSLAX46Y46*%
G04 Gerber Fmt 4.6, Leading zero omitted, Abs format (unit mm)*
G04 Created by KiCad (PCBNEW 8.0.8) date 2025-03-04 12:46:17*
%MOMM*%
%LPD*%
G01*
G04 APERTURE LIST*
G04 #@! TA.AperFunction,ComponentPad*
%ADD10R,1.600000X1.600000*%
G04 #@! TD*
G04 #@! TA.AperFunction,ComponentPad*
%ADD11C,1.600000*%
G04 #@! TD*
G04 #@! TA.AperFunction,ComponentPad*
%ADD12O,1.600000X1.600000*%
G04 #@! TD*
G04 #@! TA.AperFunction,ComponentPad*
%ADD13R,1.700000X1.700000*%
G04 #@! TD*
G04 #@! TA.AperFunction,ComponentPad*
%ADD14O,1.700000X1.700000*%
G04 #@! TD*
G04 #@! TA.AperFunction,ViaPad*
%ADD15C,0.600000*%
G04 #@! TD*
G04 #@! TA.AperFunction,Conductor*
%ADD16C,0.319000*%
G04 #@! TD*
G04 #@! TA.AperFunction,Conductor*
%ADD17C,0.200000*%
G04 #@! TD*
G04 APERTURE END LIST*
D10*
X57040000Y-45455000D03*
D11*
X57040000Y-47955000D03*
D10*
X135040000Y-130455000D03*
D12*
X137580000Y-130455000D03*
X140120000Y-130455000D03*
X142660000Y-130455000D03*
X145200000Y-130455000D03*
X147740000Y-130455000D03*
X150280000Y-130455000D03*
X150280000Y-122835000D03*
X147740000Y-122835000D03*
X145200000Y-122835000D03*
X142660000Y-122835000D03*
X140120000Y-122835000D03*
X137580000Y-122835000D03*
X135040000Y-122835000D03*
D10*
X135040000Y-70455000D03*
D12*
X137580000Y-70455000D03*
X140120000Y-70455000D03*
X142660000Y-70455000D03*
X145200000Y-70455000D03*
X147740000Y-70455000D03*
X150280000Y-70455000D03*
X150280000Y-62835000D03*
X147740000Y-62835000D03*
X145200000Y-62835000D03*
X142660000Y-62835000D03*
X140120000Y-62835000D03*
X137580000Y-62835000D03*
X135040000Y-62835000D03*
D10*
X40040000Y-140455000D03*
D11*
X42540000Y-140455000D03*
D10*
X57040000Y-105455000D03*
D11*
X57040000Y-107955000D03*
D10*
X65040000Y-130455000D03*
D12*
X67580000Y-130455000D03*
X70120000Y-130455000D03*
X72660000Y-130455000D03*
X75200000Y-130455000D03*
X77740000Y-130455000D03*
X80280000Y-130455000D03*
X80280000Y-122835000D03*
X77740000Y-122835000D03*
X75200000Y-122835000D03*
X72660000Y-122835000D03*
X70120000Y-122835000D03*
X67580000Y-122835000D03*
X65040000Y-122835000D03*
D13*
X165040000Y-146455000D03*
D14*
X165040000Y-143915000D03*
D10*
X92040000Y-125455000D03*
D11*
X92040000Y-127955000D03*
D10*
X57040000Y-85455000D03*
D11*
X57040000Y-87955000D03*
D10*
X135040000Y-110455000D03*
D12*
X137580000Y-110455000D03*
X140120000Y-110455000D03*
X142660000Y-110455000D03*
X145200000Y-110455000D03*
X147740000Y-110455000D03*
X150280000Y-110455000D03*
X150280000Y-102835000D03*
X147740000Y-102835000D03*
X145200000Y-102835000D03*
X142660000Y-102835000D03*
X140120000Y-102835000D03*
X137580000Y-102835000D03*
X135040000Y-102835000D03*
D10*
X105040000Y-150455000D03*
D12*
X107580000Y-150455000D03*
X110120000Y-150455000D03*
X112660000Y-150455000D03*
X115200000Y-150455000D03*
X117740000Y-150455000D03*
X120280000Y-150455000D03*
X122820000Y-150455000D03*
X125360000Y-150455000D03*
X127900000Y-150455000D03*
X130440000Y-150455000D03*
X132980000Y-150455000D03*
X132980000Y-142835000D03*
X130440000Y-142835000D03*
X127900000Y-142835000D03*
X125360000Y-142835000D03*
X122820000Y-142835000D03*
X120280000Y-142835000D03*
X117740000Y-142835000D03*
X115200000Y-142835000D03*
X112660000Y-142835000D03*
X110120000Y-142835000D03*
X107580000Y-142835000D03*
X105040000Y-142835000D03*
D10*
X100040000Y-90455000D03*
D12*
X102580000Y-90455000D03*
X105120000Y-90455000D03*
X107660000Y-90455000D03*
X110200000Y-90455000D03*
X112740000Y-90455000D03*
X115280000Y-90455000D03*
X115280000Y-82835000D03*
X112740000Y-82835000D03*
X110200000Y-82835000D03*
X107660000Y-82835000D03*
X105120000Y-82835000D03*
X102580000Y-82835000D03*
X100040000Y-82835000D03*
D10*
X65040000Y-110455000D03*
D12*
X67580000Y-110455000D03*
X70120000Y-110455000D03*
X72660000Y-110455000D03*
X75200000Y-110455000D03*
X77740000Y-110455000D03*
X80280000Y-110455000D03*
X80280000Y-102835000D03*
X77740000Y-102835000D03*
X75200000Y-102835000D03*
X72660000Y-102835000D03*
X70120000Y-102835000D03*
X67580000Y-102835000D03*
X65040000Y-102835000D03*
D10*
X127040000Y-125455000D03*
D11*
X127040000Y-127955000D03*
D10*
X65040000Y-70455000D03*
D12*
X67580000Y-70455000D03*
X70120000Y-70455000D03*
X72660000Y-70455000D03*
X75200000Y-70455000D03*
X77740000Y-70455000D03*
X80280000Y-70455000D03*
X80280000Y-62835000D03*
X77740000Y-62835000D03*
X75200000Y-62835000D03*
X72660000Y-62835000D03*
X70120000Y-62835000D03*
X67580000Y-62835000D03*
X65040000Y-62835000D03*
D10*
X127040000Y-85455000D03*
D11*
X127040000Y-87955000D03*
D10*
X127040000Y-105455000D03*
D11*
X127040000Y-107955000D03*
D10*
X100040000Y-70455000D03*
D12*
X102580000Y-70455000D03*
X105120000Y-70455000D03*
X107660000Y-70455000D03*
X110200000Y-70455000D03*
X112740000Y-70455000D03*
X115280000Y-70455000D03*
X115280000Y-62835000D03*
X112740000Y-62835000D03*
X110200000Y-62835000D03*
X107660000Y-62835000D03*
X105120000Y-62835000D03*
X102580000Y-62835000D03*
X100040000Y-62835000D03*
D10*
X57040000Y-145455000D03*
D11*
X57040000Y-147955000D03*
D10*
X92040000Y-65455000D03*
D11*
X92040000Y-67955000D03*
D10*
X92040000Y-85455000D03*
D11*
X92040000Y-87955000D03*
D10*
X57040000Y-65455000D03*
D11*
X57040000Y-67955000D03*
D10*
X100040000Y-130455000D03*
D12*
X102580000Y-130455000D03*
X105120000Y-130455000D03*
X107660000Y-130455000D03*
X110200000Y-130455000D03*
X112740000Y-130455000D03*
X115280000Y-130455000D03*
X115280000Y-122835000D03*
X112740000Y-122835000D03*
X110200000Y-122835000D03*
X107660000Y-122835000D03*
X105120000Y-122835000D03*
X102580000Y-122835000D03*
X100040000Y-122835000D03*
D10*
X135040000Y-90455000D03*
D12*
X137580000Y-90455000D03*
X140120000Y-90455000D03*
X142660000Y-90455000D03*
X145200000Y-90455000D03*
X147740000Y-90455000D03*
X150280000Y-90455000D03*
X150280000Y-82835000D03*
X147740000Y-82835000D03*
X145200000Y-82835000D03*
X142660000Y-82835000D03*
X140120000Y-82835000D03*
X137580000Y-82835000D03*
X135040000Y-82835000D03*
D13*
X135040000Y-160455000D03*
D14*
X132500000Y-160455000D03*
X129960000Y-160455000D03*
X127420000Y-160455000D03*
X124880000Y-160455000D03*
X122340000Y-160455000D03*
X119800000Y-160455000D03*
X117260000Y-160455000D03*
X114720000Y-160455000D03*
X112180000Y-160455000D03*
X109640000Y-160455000D03*
X107100000Y-160455000D03*
X104560000Y-160455000D03*
X102020000Y-160455000D03*
X99480000Y-160455000D03*
X96940000Y-160455000D03*
D10*
X140065000Y-145849900D03*
D11*
X140065000Y-148349900D03*
D10*
X40040000Y-50455000D03*
D11*
X42540000Y-50455000D03*
D13*
X165040000Y-44455000D03*
D14*
X165040000Y-46995000D03*
X165040000Y-49535000D03*
X165040000Y-52075000D03*
X165040000Y-54615000D03*
X165040000Y-57155000D03*
X165040000Y-59695000D03*
X165040000Y-62235000D03*
X165040000Y-64775000D03*
X165040000Y-67315000D03*
X165040000Y-69855000D03*
X165040000Y-72395000D03*
X165040000Y-74935000D03*
X165040000Y-77475000D03*
X165040000Y-80015000D03*
X165040000Y-82555000D03*
X165040000Y-85095000D03*
X165040000Y-87635000D03*
D10*
X92040000Y-105455000D03*
D11*
X92040000Y-107955000D03*
D10*
X127040000Y-45455000D03*
D11*
X127040000Y-47955000D03*
D10*
X57040000Y-125455000D03*
D11*
X57040000Y-127955000D03*
D10*
X100040000Y-50455000D03*
D12*
X102580000Y-50455000D03*
X105120000Y-50455000D03*
X107660000Y-50455000D03*
X110200000Y-50455000D03*
X112740000Y-50455000D03*
X115280000Y-50455000D03*
X115280000Y-42835000D03*
X112740000Y-42835000D03*
X110200000Y-42835000D03*
X107660000Y-42835000D03*
X105120000Y-42835000D03*
X102580000Y-42835000D03*
X100040000Y-42835000D03*
D10*
X45040000Y-90455000D03*
D12*
X45040000Y-87915000D03*
X45040000Y-85375000D03*
X45040000Y-82835000D03*
X45040000Y-80295000D03*
X45040000Y-77755000D03*
X45040000Y-75215000D03*
X45040000Y-72675000D03*
X45040000Y-70135000D03*
X45040000Y-67595000D03*
X45040000Y-65055000D03*
X45040000Y-62515000D03*
X37420000Y-62515000D03*
X37420000Y-65055000D03*
X37420000Y-67595000D03*
X37420000Y-70135000D03*
X37420000Y-72675000D03*
X37420000Y-75215000D03*
X37420000Y-77755000D03*
X37420000Y-80295000D03*
X37420000Y-82835000D03*
X37420000Y-85375000D03*
X37420000Y-87915000D03*
X37420000Y-90455000D03*
D10*
X65040000Y-150455000D03*
D12*
X67580000Y-150455000D03*
X70120000Y-150455000D03*
X72660000Y-150455000D03*
X75200000Y-150455000D03*
X77740000Y-150455000D03*
X80280000Y-150455000D03*
X82820000Y-150455000D03*
X85360000Y-150455000D03*
X87900000Y-150455000D03*
X90440000Y-150455000D03*
X92980000Y-150455000D03*
X92980000Y-142835000D03*
X90440000Y-142835000D03*
X87900000Y-142835000D03*
X85360000Y-142835000D03*
X82820000Y-142835000D03*
X80280000Y-142835000D03*
X77740000Y-142835000D03*
X75200000Y-142835000D03*
X72660000Y-142835000D03*
X70120000Y-142835000D03*
X67580000Y-142835000D03*
X65040000Y-142835000D03*
D10*
X65040000Y-50455000D03*
D12*
X67580000Y-50455000D03*
X70120000Y-50455000D03*
X72660000Y-50455000D03*
X75200000Y-50455000D03*
X77740000Y-50455000D03*
X80280000Y-50455000D03*
X80280000Y-42835000D03*
X77740000Y-42835000D03*
X75200000Y-42835000D03*
X72660000Y-42835000D03*
X70120000Y-42835000D03*
X67580000Y-42835000D03*
X65040000Y-42835000D03*
D10*
X100040000Y-110455000D03*
D12*
X102580000Y-110455000D03*
X105120000Y-110455000D03*
X107660000Y-110455000D03*
X110200000Y-110455000D03*
X112740000Y-110455000D03*
X115280000Y-110455000D03*
X115280000Y-102835000D03*
X112740000Y-102835000D03*
X110200000Y-102835000D03*
X107660000Y-102835000D03*
X105120000Y-102835000D03*
X102580000Y-102835000D03*
X100040000Y-102835000D03*
D10*
X92040000Y-45455000D03*
D11*
X92040000Y-47955000D03*
D13*
X165040000Y-131455000D03*
D14*
X165040000Y-133995000D03*
D10*
X65040000Y-90455000D03*
D12*
X67580000Y-90455000D03*
X70120000Y-90455000D03*
X72660000Y-90455000D03*
X75200000Y-90455000D03*
X77740000Y-90455000D03*
X80280000Y-90455000D03*
X80280000Y-82835000D03*
X77740000Y-82835000D03*
X75200000Y-82835000D03*
X72660000Y-82835000D03*
X70120000Y-82835000D03*
X67580000Y-82835000D03*
X65040000Y-82835000D03*
D10*
X135040000Y-50455000D03*
D12*
X137580000Y-50455000D03*
X140120000Y-50455000D03*
X142660000Y-50455000D03*
X145200000Y-50455000D03*
X147740000Y-50455000D03*
X150280000Y-50455000D03*
X150280000Y-42835000D03*
X147740000Y-42835000D03*
X145200000Y-42835000D03*
X142660000Y-42835000D03*
X140120000Y-42835000D03*
X137580000Y-42835000D03*
X135040000Y-42835000D03*
D13*
X165040000Y-101455000D03*
D14*
X165040000Y-103995000D03*
X165040000Y-106535000D03*
X165040000Y-109075000D03*
X165040000Y-111615000D03*
X165040000Y-114155000D03*
X165040000Y-116695000D03*
X165040000Y-119235000D03*
X165040000Y-121775000D03*
X165040000Y-124315000D03*
D10*
X45040000Y-130455000D03*
D12*
X45040000Y-127915000D03*
X45040000Y-125375000D03*
X45040000Y-122835000D03*
X45040000Y-120295000D03*
X45040000Y-117755000D03*
X45040000Y-115215000D03*
X45040000Y-112675000D03*
X45040000Y-110135000D03*
X45040000Y-107595000D03*
X45040000Y-105055000D03*
X45040000Y-102515000D03*
X37420000Y-102515000D03*
X37420000Y-105055000D03*
X37420000Y-107595000D03*
X37420000Y-110135000D03*
X37420000Y-112675000D03*
X37420000Y-115215000D03*
X37420000Y-117755000D03*
X37420000Y-120295000D03*
X37420000Y-122835000D03*
X37420000Y-125375000D03*
X37420000Y-127915000D03*
X37420000Y-130455000D03*
D10*
X127040000Y-65455000D03*
D11*
X127040000Y-67955000D03*
D15*
X122367300Y-153716800D03*
X46419700Y-89326500D03*
X53760400Y-147289700D03*
X116383600Y-145141200D03*
X41369300Y-157000000D03*
X113317600Y-148218400D03*
X108983400Y-147013200D03*
X118880300Y-144661100D03*
X36559000Y-154685200D03*
X54581700Y-146555400D03*
X49678000Y-79193300D03*
X35500000Y-157000000D03*
X102020000Y-149970100D03*
X71879000Y-146712500D03*
X37165400Y-156000000D03*
X106430200Y-151178500D03*
X106491900Y-148628000D03*
X70120000Y-147290100D03*
X99480000Y-149960300D03*
X100750000Y-150576400D03*
X91585700Y-141174200D03*
X91585700Y-147917000D03*
X89189400Y-147936000D03*
X68728600Y-147289600D03*
X38825000Y-155725300D03*
X35165000Y-89155000D03*
X152957400Y-94465200D03*
X129440400Y-94465200D03*
X163484100Y-85244000D03*
X130061700Y-80779600D03*
X159546200Y-131574200D03*
X97481400Y-43905400D03*
X152811200Y-81902000D03*
X152335200Y-51788700D03*
X98869900Y-45633800D03*
X127527200Y-49259300D03*
X94529000Y-87271900D03*
X131353400Y-119235000D03*
X121864500Y-95360200D03*
X92480500Y-84068500D03*
X158288100Y-121648600D03*
X146873900Y-106456400D03*
X131725600Y-120458000D03*
X129104600Y-98452200D03*
X122414500Y-55019800D03*
X162925100Y-122379700D03*
X91972900Y-109492800D03*
X127051400Y-120370700D03*
X94352300Y-120370700D03*
X128867100Y-121089400D03*
X129441100Y-96033000D03*
X123798900Y-74496100D03*
X161370700Y-82835000D03*
X159199500Y-46431900D03*
X157515300Y-81487400D03*
X148843400Y-87838600D03*
X161449200Y-80474500D03*
X159580200Y-81083700D03*
X159085200Y-45033100D03*
X166021200Y-48581800D03*
X57504500Y-82397000D03*
X94351000Y-81280300D03*
X92152200Y-78360700D03*
X59145700Y-76520300D03*
X56971700Y-74346300D03*
X92523700Y-90359500D03*
X55846900Y-75125000D03*
X59713100Y-87272200D03*
X58869900Y-107278500D03*
X56960400Y-91685700D03*
X91593000Y-74422700D03*
X94335800Y-78374200D03*
X58881700Y-74422700D03*
X57119300Y-72617300D03*
X57009900Y-81718200D03*
X63348000Y-42994300D03*
X38552100Y-42994300D03*
X60628400Y-77132200D03*
X57507700Y-75915300D03*
X125290700Y-68277000D03*
X92375400Y-77132200D03*
X129856800Y-61716500D03*
X103692100Y-68639400D03*
X91543300Y-76376900D03*
X95130700Y-86233000D03*
X55839100Y-73225100D03*
X59343900Y-75125900D03*
X59680800Y-106504100D03*
X56830400Y-89834500D03*
X56957900Y-63764900D03*
X58877000Y-73371300D03*
X92121400Y-73371300D03*
X94962300Y-78883100D03*
X55835800Y-70478400D03*
X96133200Y-87120100D03*
X92157700Y-80769500D03*
X57395600Y-76835100D03*
X60038500Y-79478000D03*
X57535000Y-89283900D03*
X147341100Y-97086100D03*
X128906300Y-97086100D03*
X123187600Y-72977600D03*
X92985500Y-79357400D03*
X125217700Y-70784300D03*
X92519000Y-58949800D03*
X56348600Y-61180300D03*
X129260100Y-87275600D03*
X95955300Y-78019100D03*
X57315300Y-77755000D03*
X62227900Y-72532100D03*
X101307700Y-78019100D03*
X92177000Y-72532100D03*
X117624300Y-64766300D03*
X93764400Y-106148100D03*
X57439700Y-123888900D03*
X105120000Y-64766300D03*
X91547200Y-101722200D03*
X117624300Y-101532400D03*
X56405000Y-122421500D03*
X58933200Y-117868100D03*
X92947000Y-117868100D03*
X85104900Y-117868100D03*
X83850200Y-139690200D03*
X60786700Y-139690200D03*
X50811700Y-130125300D03*
X56997000Y-130125300D03*
X101251500Y-139690200D03*
X81510600Y-64209500D03*
X130766600Y-127285900D03*
X140190200Y-108819700D03*
X58861500Y-120034800D03*
X57407400Y-120295000D03*
X98203700Y-130688700D03*
X57283300Y-123061200D03*
X126810000Y-103900600D03*
X59680800Y-111882700D03*
X92971000Y-111882700D03*
X143930000Y-126572700D03*
X136212400Y-128624600D03*
X136212400Y-147050900D03*
X125360700Y-153351600D03*
X69405700Y-145431800D03*
X126463000Y-147797900D03*
X118226100Y-75097800D03*
X127536700Y-75097800D03*
X127900000Y-153019900D03*
X70920200Y-146677700D03*
X136168400Y-108624600D03*
X131173500Y-148609300D03*
X110155600Y-148615800D03*
X108251900Y-148614700D03*
X129006900Y-148181800D03*
X127497900Y-76432500D03*
X119409600Y-78991700D03*
X123597900Y-123972900D03*
X105349600Y-148615100D03*
X117656000Y-128563800D03*
X106428700Y-128639400D03*
X106116100Y-141733300D03*
X103982600Y-139034400D03*
X103726200Y-138095700D03*
X105275600Y-137731700D03*
X73984100Y-144755700D03*
X137332700Y-147652700D03*
X103210800Y-135671700D03*
X102187300Y-136546800D03*
X74098300Y-68639000D03*
X85706600Y-84116100D03*
X68850000Y-68625900D03*
X82650700Y-87941100D03*
X120764800Y-124619700D03*
X101141700Y-128620300D03*
X99574400Y-147154900D03*
X97681000Y-126846200D03*
X89332100Y-145837000D03*
X89332100Y-126846200D03*
X125417100Y-147011200D03*
X99569500Y-128621200D03*
X96106400Y-148573900D03*
X86313400Y-122835000D03*
X93881400Y-46577100D03*
X94859800Y-121677000D03*
X92582900Y-123953900D03*
X78401500Y-99911900D03*
X71481100Y-105898900D03*
X71479500Y-87121700D03*
X66459700Y-88616900D03*
X84105700Y-82454400D03*
X97939500Y-42963800D03*
X84105700Y-42963800D03*
X95664400Y-95966100D03*
X116003200Y-95966100D03*
X128890600Y-100967600D03*
X141548900Y-127293100D03*
X92538100Y-93072300D03*
X123884100Y-95033400D03*
X97120900Y-100929900D03*
X122240500Y-102904600D03*
X128882400Y-111967000D03*
X91564500Y-90533600D03*
X95426700Y-107277300D03*
X91725400Y-93926500D03*
X97244700Y-77105500D03*
X128946400Y-109234700D03*
X92569400Y-71222600D03*
X121450300Y-77105500D03*
X92059100Y-58104400D03*
X75675400Y-47288700D03*
X126498700Y-76319600D03*
X91557300Y-69376600D03*
X131904500Y-87289400D03*
X95665700Y-76491100D03*
X76470000Y-66645700D03*
X94903000Y-67278100D03*
X91968400Y-63247700D03*
X83179600Y-63247700D03*
X92172000Y-51165000D03*
X129978300Y-60903900D03*
X126190300Y-57115900D03*
X94578400Y-57115900D03*
X91565800Y-56378100D03*
X95504700Y-66132200D03*
X114380000Y-66132200D03*
X91925200Y-49551200D03*
X95374500Y-57719800D03*
X91961500Y-52009700D03*
X94242200Y-58560600D03*
X110455400Y-48636900D03*
X120731500Y-55918800D03*
X124261100Y-52295000D03*
X124804900Y-129273900D03*
X104312800Y-44567800D03*
X119229500Y-54222400D03*
X129748600Y-122700400D03*
X128971400Y-68631300D03*
X149296300Y-67347100D03*
X127001700Y-71558000D03*
X125274600Y-66976700D03*
X129104600Y-52028700D03*
X103945500Y-108635300D03*
X118433200Y-129318500D03*
X130630200Y-121721000D03*
X120614700Y-102835000D03*
X152140000Y-133001100D03*
X152140000Y-69574200D03*
D16*
X94139500Y-149295500D02*
X95665000Y-147770000D01*
X57040000Y-127955000D02*
X55665000Y-129330000D01*
X151439000Y-109295000D02*
X151439000Y-91615000D01*
X43880500Y-63675000D02*
X45040000Y-62515000D01*
X112780000Y-127955000D02*
X95665000Y-127955000D01*
X120280000Y-142835000D02*
X126741000Y-149295500D01*
X37420000Y-117755000D02*
X42540000Y-122875000D01*
X55665000Y-49330000D02*
X55665000Y-66580000D01*
X150280000Y-50455000D02*
X147780000Y-47955000D01*
X50040000Y-147955000D02*
X42540000Y-140455000D01*
X77740000Y-142835000D02*
X80280000Y-142835000D01*
X147780000Y-87955000D02*
X127040000Y-87955000D01*
X90880500Y-49115000D02*
X92040000Y-47955000D01*
X150280000Y-110455000D02*
X151439000Y-109295000D01*
X77780000Y-107955000D02*
X57040000Y-107955000D01*
X57040000Y-147955000D02*
X50040000Y-147955000D01*
X151439000Y-89295000D02*
X151439000Y-71615000D01*
X117740000Y-142835000D02*
X120280000Y-142835000D01*
X90880500Y-69115000D02*
X92040000Y-67955000D01*
X55665000Y-146580000D02*
X57040000Y-147955000D01*
X42540000Y-122875000D02*
X42540000Y-140455000D01*
X112780000Y-87955000D02*
X92040000Y-87955000D01*
X151665000Y-69070000D02*
X151665000Y-51840000D01*
X126741000Y-149295500D02*
X131821000Y-149295500D01*
X57040000Y-87955000D02*
X55880500Y-89115000D01*
X37420000Y-77755000D02*
X37420000Y-75215000D01*
X77780000Y-47955000D02*
X57040000Y-47955000D01*
X37420000Y-117755000D02*
X37420000Y-115215000D01*
X77780000Y-127955000D02*
X57040000Y-127955000D01*
X90880500Y-89115000D02*
X92040000Y-87955000D01*
X95665000Y-127955000D02*
X92040000Y-127955000D01*
X55880500Y-89115000D02*
X55880500Y-106795000D01*
X135085000Y-148349900D02*
X132980000Y-150455000D01*
X151439000Y-91615000D02*
X150280000Y-90455000D01*
X115280000Y-130455000D02*
X112780000Y-127955000D01*
X147780000Y-47955000D02*
X127040000Y-47955000D01*
X80280000Y-70455000D02*
X77780000Y-67955000D01*
X90880500Y-126795500D02*
X90880500Y-109115000D01*
X81439500Y-143994500D02*
X86519500Y-143994500D01*
X72620000Y-147955000D02*
X77740000Y-142835000D01*
X57040000Y-47955000D02*
X55665000Y-49330000D01*
X38579500Y-114055500D02*
X37420000Y-115215000D01*
X111279000Y-149295500D02*
X117740000Y-142835000D01*
X150280000Y-130455000D02*
X151665000Y-129070000D01*
X90880500Y-66795000D02*
X90880500Y-49115000D01*
X45040000Y-102515000D02*
X38579500Y-108975000D01*
X92980000Y-150455000D02*
X94139500Y-149295500D01*
X150280000Y-110455000D02*
X147780000Y-107955000D01*
X165040000Y-146455000D02*
X141960000Y-146455000D01*
X80280000Y-90455000D02*
X77780000Y-87955000D01*
X150280000Y-138134900D02*
X150280000Y-130455000D01*
X115280000Y-50455000D02*
X112780000Y-47955000D01*
X92040000Y-127955000D02*
X90880500Y-126795500D01*
X112780000Y-67955000D02*
X92040000Y-67955000D01*
X55665000Y-129330000D02*
X55665000Y-146580000D01*
X151665000Y-129070000D02*
X151665000Y-111840000D01*
X115280000Y-70455000D02*
X112780000Y-67955000D01*
X94139500Y-149295500D02*
X111279000Y-149295500D01*
X55665000Y-109330000D02*
X55665000Y-126580000D01*
X147780000Y-127955000D02*
X127040000Y-127955000D01*
X45040000Y-61280000D02*
X42540000Y-58780000D01*
X150280000Y-70455000D02*
X151665000Y-69070000D01*
X80280000Y-130455000D02*
X77780000Y-127955000D01*
X57040000Y-107955000D02*
X55665000Y-109330000D01*
X43880500Y-84215000D02*
X37420000Y-77755000D01*
X150280000Y-90455000D02*
X151439000Y-89295000D01*
X80280000Y-110455000D02*
X77780000Y-107955000D01*
X45040000Y-62515000D02*
X45040000Y-61280000D01*
X112780000Y-107955000D02*
X92040000Y-107955000D01*
X45040000Y-102515000D02*
X43880500Y-101355000D01*
X37420000Y-75215000D02*
X43880500Y-68755000D01*
X131821000Y-149295500D02*
X132980000Y-150455000D01*
X147780000Y-107955000D02*
X127040000Y-107955000D01*
X80280000Y-142835000D02*
X81439500Y-143994500D01*
X57040000Y-147955000D02*
X72620000Y-147955000D01*
X43880500Y-101355000D02*
X43880500Y-84215000D01*
X151439000Y-71615000D02*
X150280000Y-70455000D01*
X92040000Y-87955000D02*
X90880500Y-86795000D01*
X80280000Y-50455000D02*
X77780000Y-47955000D01*
X43880500Y-68755000D02*
X43880500Y-63675000D01*
X150280000Y-130455000D02*
X147780000Y-127955000D01*
X112780000Y-47955000D02*
X92040000Y-47955000D01*
X38579500Y-108975000D02*
X38579500Y-114055500D01*
X150280000Y-90455000D02*
X147780000Y-87955000D01*
X115280000Y-90455000D02*
X112780000Y-87955000D01*
X92040000Y-107955000D02*
X90880500Y-106795000D01*
X147780000Y-67955000D02*
X127040000Y-67955000D01*
X90880500Y-109115000D02*
X92040000Y-107955000D01*
X57040000Y-67955000D02*
X55165000Y-69830000D01*
X86519500Y-143994500D02*
X92980000Y-150455000D01*
X150280000Y-70455000D02*
X147780000Y-67955000D01*
X55665000Y-126580000D02*
X57040000Y-127955000D01*
X141960000Y-146455000D02*
X140065000Y-148349900D01*
X95665000Y-147770000D02*
X95665000Y-127955000D01*
X92040000Y-67955000D02*
X90880500Y-66795000D01*
X77780000Y-67955000D02*
X57040000Y-67955000D01*
X140065000Y-148349900D02*
X135085000Y-148349900D01*
X115280000Y-110455000D02*
X112780000Y-107955000D01*
X55165000Y-86080000D02*
X57040000Y-87955000D01*
X151665000Y-51840000D02*
X150280000Y-50455000D01*
X140065000Y-148349900D02*
X150280000Y-138134900D01*
X42540000Y-58780000D02*
X42540000Y-50455000D01*
X90880500Y-86795000D02*
X90880500Y-69115000D01*
X55165000Y-69830000D02*
X55165000Y-86080000D01*
X55665000Y-66580000D02*
X57040000Y-67955000D01*
X92980000Y-150455000D02*
X94139500Y-149295500D01*
X151665000Y-111840000D02*
X150280000Y-110455000D01*
X55880500Y-106795000D02*
X57040000Y-107955000D01*
X90880500Y-106795000D02*
X90880500Y-89115000D01*
X77780000Y-87955000D02*
X57040000Y-87955000D01*
D17*
X46419700Y-89326500D02*
X53760400Y-96667200D01*
X127420000Y-158769500D02*
X122367300Y-153716800D01*
X127420000Y-160455000D02*
X127420000Y-158769500D01*
X53760400Y-96667200D02*
X53760400Y-147289700D01*
X112180000Y-160455000D02*
X112180000Y-159303300D01*
X116383600Y-155099700D02*
X116383600Y-145141200D01*
X112180000Y-159303300D02*
X116383600Y-155099700D01*
X41369300Y-157000000D02*
X41369300Y-127748300D01*
X37420000Y-123799000D02*
X41369300Y-127748300D01*
X37420000Y-122835000D02*
X37420000Y-123799000D01*
X109640000Y-159303300D02*
X111558300Y-157385000D01*
X109640000Y-160455000D02*
X109640000Y-159303300D01*
X110120000Y-145876600D02*
X108983400Y-147013200D01*
X111558300Y-149977700D02*
X113317600Y-148218400D01*
X110120000Y-142835000D02*
X110120000Y-145876600D01*
X111558300Y-157385000D02*
X111558300Y-149977700D01*
X114720000Y-160455000D02*
X114720000Y-159303300D01*
X118880300Y-155143000D02*
X118880300Y-144661100D01*
X114720000Y-159303300D02*
X118880300Y-155143000D01*
X35867400Y-122721000D02*
X35867400Y-153993600D01*
X35867400Y-153993600D02*
X36559000Y-154685200D01*
X37420000Y-121168400D02*
X35867400Y-122721000D01*
X37420000Y-120295000D02*
X37420000Y-121168400D01*
X54581700Y-146555400D02*
X54581700Y-84097000D01*
X54581700Y-84097000D02*
X49678000Y-79193300D01*
X35465700Y-156965700D02*
X35465700Y-94625100D01*
X35500000Y-157000000D02*
X35465700Y-156965700D01*
X38533200Y-87452200D02*
X37950500Y-86869500D01*
X37950500Y-86869500D02*
X37950500Y-85905500D01*
X38533200Y-91557600D02*
X38533200Y-87452200D01*
X37950500Y-85905500D02*
X37420000Y-85375000D01*
X35465700Y-94625100D02*
X38533200Y-91557600D01*
X72660000Y-142835000D02*
X72660000Y-143936700D01*
X102020000Y-160455000D02*
X102020000Y-149970100D01*
X71879000Y-144717700D02*
X71879000Y-146712500D01*
X72660000Y-143936700D02*
X71879000Y-144717700D01*
X37420000Y-128835000D02*
X36290700Y-129964300D01*
X37420000Y-127915000D02*
X37420000Y-128835000D01*
X37165400Y-152014500D02*
X37165400Y-156000000D01*
X36290700Y-129964300D02*
X36290700Y-151139800D01*
X36290700Y-151139800D02*
X37165400Y-152014500D01*
X107580000Y-143936700D02*
X106491900Y-145024800D01*
X106491900Y-145024800D02*
X106491900Y-148628000D01*
X106430200Y-158633500D02*
X106430200Y-151178500D01*
X107100000Y-159303300D02*
X106430200Y-158633500D01*
X107100000Y-160455000D02*
X107100000Y-159303300D01*
X107580000Y-142835000D02*
X107580000Y-143936700D01*
X99480000Y-160455000D02*
X99480000Y-149960300D01*
X70120000Y-142835000D02*
X70120000Y-147290100D01*
X103696200Y-160455000D02*
X102511300Y-161639900D01*
X100750000Y-160873400D02*
X100750000Y-150576400D01*
X101516500Y-161639900D02*
X100750000Y-160873400D01*
X102511300Y-161639900D02*
X101516500Y-161639900D01*
X91585700Y-141174200D02*
X91585700Y-147917000D01*
X104560000Y-160455000D02*
X103696200Y-160455000D01*
X96940000Y-160455000D02*
X96940000Y-159303300D01*
X89189400Y-151552700D02*
X89189400Y-147936000D01*
X67580000Y-142835000D02*
X67580000Y-143936700D01*
X68728600Y-145085300D02*
X68728600Y-147289600D01*
X67580000Y-143936700D02*
X68728600Y-145085300D01*
X96940000Y-159303300D02*
X89189400Y-151552700D01*
X37420000Y-126339000D02*
X38825000Y-127744000D01*
X38825000Y-127744000D02*
X38825000Y-155725300D01*
X37420000Y-125375000D02*
X37420000Y-126339000D01*
X35165000Y-89155000D02*
X35165000Y-85090000D01*
X35165000Y-85090000D02*
X37420000Y-82835000D01*
X124428900Y-89453700D02*
X129440400Y-94465200D01*
X123828000Y-55024700D02*
X123828000Y-71800900D01*
X152957400Y-125868400D02*
X152957400Y-94465200D01*
X165040000Y-133995000D02*
X161084000Y-133995000D01*
X123828000Y-71800900D02*
X124428900Y-72401800D01*
X124428900Y-72401800D02*
X124428900Y-89453700D01*
X112740000Y-43936700D02*
X123828000Y-55024700D01*
X112740000Y-42835000D02*
X112740000Y-43936700D01*
X161084000Y-133995000D02*
X152957400Y-125868400D01*
X116381700Y-42835000D02*
X124901200Y-51354500D01*
X165040000Y-131455000D02*
X165040000Y-130303300D01*
X124664300Y-69266700D02*
X125833300Y-70435700D01*
X124901200Y-54453600D02*
X124664300Y-54690500D01*
X166191700Y-129151600D02*
X166191700Y-87157900D01*
X124664300Y-54690500D02*
X124664300Y-69266700D01*
X164723400Y-86483300D02*
X163484100Y-85244000D01*
X125833300Y-70435700D02*
X125833300Y-76551200D01*
X166191700Y-87157900D02*
X165517100Y-86483300D01*
X125833300Y-76551200D02*
X130061700Y-80779600D01*
X165517100Y-86483300D02*
X164723400Y-86483300D01*
X165040000Y-130303300D02*
X166191700Y-129151600D01*
X115280000Y-42835000D02*
X116381700Y-42835000D01*
X124901200Y-51354500D02*
X124901200Y-54453600D01*
X165040000Y-116695000D02*
X163890000Y-117845000D01*
X163890000Y-117845000D02*
X163890000Y-127230400D01*
X163890000Y-127230400D02*
X159546200Y-131574200D01*
X141696000Y-50455000D02*
X140500300Y-49259300D01*
X142660000Y-50455000D02*
X141696000Y-50455000D01*
X152811200Y-52264700D02*
X152335200Y-51788700D01*
X152811200Y-93423000D02*
X152811200Y-81902000D01*
X98869900Y-45633800D02*
X97481400Y-44245300D01*
X152811200Y-81902000D02*
X152811200Y-52264700D01*
X165040000Y-106535000D02*
X165040000Y-105651800D01*
X140500300Y-49259300D02*
X127527200Y-49259300D01*
X165040000Y-105651800D02*
X152811200Y-93423000D01*
X97481400Y-44245300D02*
X97481400Y-43905400D01*
X92680200Y-84068500D02*
X94529000Y-85917300D01*
X92480500Y-84068500D02*
X92680200Y-84068500D01*
X131353400Y-119235000D02*
X131353400Y-117532400D01*
X131353400Y-117532400D02*
X121638800Y-107817800D01*
X94529000Y-85917300D02*
X94529000Y-87271900D01*
X121638800Y-107817800D02*
X121638800Y-95585900D01*
X121638800Y-95585900D02*
X121864500Y-95360200D01*
X165040000Y-109075000D02*
X158288100Y-115826900D01*
X158288100Y-115826900D02*
X158288100Y-121648600D01*
X142660000Y-102835000D02*
X143252500Y-102835000D01*
X143252500Y-102835000D02*
X146873900Y-106456400D01*
X110905700Y-43936700D02*
X110200000Y-43936700D01*
X121267100Y-108014100D02*
X121237100Y-107984100D01*
X121267100Y-109999500D02*
X121267100Y-108014100D01*
X121237100Y-107984100D02*
X121237100Y-94739800D01*
X120115700Y-77521000D02*
X120115700Y-53146700D01*
X120646900Y-94149600D02*
X120646900Y-78052200D01*
X131725600Y-120458000D02*
X121267100Y-109999500D01*
X120646900Y-78052200D02*
X120115700Y-77521000D01*
X121237100Y-94739800D02*
X120646900Y-94149600D01*
X120115700Y-53146700D02*
X110905700Y-43936700D01*
X110200000Y-42835000D02*
X110200000Y-43936700D01*
X129104600Y-98452200D02*
X122414500Y-91762100D01*
X162925100Y-113729900D02*
X162925100Y-122379700D01*
X165040000Y-111615000D02*
X162925100Y-113729900D01*
X122414500Y-91762100D02*
X122414500Y-55019800D01*
X94352300Y-120370700D02*
X91972900Y-117991300D01*
X127770100Y-121089400D02*
X127051400Y-120370700D01*
X128867100Y-121089400D02*
X127770100Y-121089400D01*
X91972900Y-117991300D02*
X91972900Y-109492800D01*
X129441100Y-96033000D02*
X123798900Y-90390800D01*
X123798900Y-90390800D02*
X123798900Y-74496100D01*
X161370700Y-96634000D02*
X161370700Y-82835000D01*
X165040000Y-100303300D02*
X161370700Y-96634000D01*
X165040000Y-101455000D02*
X165040000Y-100303300D01*
X150280000Y-44935000D02*
X150280000Y-42835000D01*
X165040000Y-59695000D02*
X150280000Y-44935000D01*
X159199500Y-51314500D02*
X159199500Y-46431900D01*
X165040000Y-57155000D02*
X159199500Y-51314500D01*
X157515300Y-75703500D02*
X157515300Y-81487400D01*
X165040000Y-68178800D02*
X157515300Y-75703500D01*
X165040000Y-67315000D02*
X165040000Y-68178800D01*
X145200000Y-70455000D02*
X145200000Y-71556700D01*
X145200000Y-71556700D02*
X148843400Y-75200100D01*
X148843400Y-75200100D02*
X148843400Y-87838600D01*
X161449200Y-76869000D02*
X161449200Y-80474500D01*
X165040000Y-72395000D02*
X165040000Y-73278200D01*
X165040000Y-73278200D02*
X161449200Y-76869000D01*
X163890000Y-61525000D02*
X145200000Y-42835000D01*
X163890000Y-63625000D02*
X163890000Y-61525000D01*
X165040000Y-64775000D02*
X163890000Y-63625000D01*
X165040000Y-70718800D02*
X159580200Y-76178600D01*
X159580200Y-76178600D02*
X159580200Y-81083700D01*
X165040000Y-69855000D02*
X165040000Y-70718800D01*
X163890000Y-50925000D02*
X163890000Y-49837900D01*
X165040000Y-52075000D02*
X163890000Y-50925000D01*
X163890000Y-49837900D02*
X159085200Y-45033100D01*
X165040000Y-44455000D02*
X165040000Y-45606700D01*
X166191700Y-48411300D02*
X166021200Y-48581800D01*
X165040000Y-45606700D02*
X165328000Y-45606700D01*
X166191700Y-46470400D02*
X166191700Y-48411300D01*
X165328000Y-45606700D02*
X166191700Y-46470400D01*
X147740000Y-44021346D02*
X147740000Y-42835000D01*
X165040000Y-62235000D02*
X165040000Y-61321346D01*
X165040000Y-61321346D02*
X147740000Y-44021346D01*
X59137500Y-82397000D02*
X67580000Y-73954500D01*
X67580000Y-73954500D02*
X67580000Y-70455000D01*
X57504500Y-82397000D02*
X59137500Y-82397000D01*
X92152200Y-78360700D02*
X92152200Y-79390200D01*
X56971700Y-74346300D02*
X59145700Y-76520300D01*
X94042300Y-81280300D02*
X94351000Y-81280300D01*
X92152200Y-79390200D02*
X94042300Y-81280300D01*
X59713100Y-87272200D02*
X59713100Y-85508100D01*
X55846900Y-81641900D02*
X55846900Y-75125000D01*
X92619200Y-90455000D02*
X92523700Y-90359500D01*
X100040000Y-90455000D02*
X92619200Y-90455000D01*
X59713100Y-85508100D02*
X55846900Y-81641900D01*
X56960400Y-91685700D02*
X58869900Y-93595200D01*
X58869900Y-93595200D02*
X58869900Y-107278500D01*
X58881700Y-74379700D02*
X57119300Y-72617300D01*
X91593000Y-74422700D02*
X91593000Y-74658000D01*
X94335800Y-77400800D02*
X94335800Y-78374200D01*
X91593000Y-74658000D02*
X94335800Y-77400800D01*
X58881700Y-74422700D02*
X58881700Y-74379700D01*
X57009900Y-81718200D02*
X57907300Y-80820800D01*
X60145700Y-80820800D02*
X61135900Y-79830600D01*
X57907300Y-80820800D02*
X60145700Y-80820800D01*
X61135900Y-79262600D02*
X65040000Y-75358500D01*
X65040000Y-75358500D02*
X65040000Y-71556700D01*
X65040000Y-70455000D02*
X65040000Y-71556700D01*
X61135900Y-79830600D02*
X61135900Y-79262600D01*
X38552100Y-68038900D02*
X38552100Y-42994300D01*
X64308400Y-43954700D02*
X63348000Y-42994300D01*
X67580000Y-42835000D02*
X66616000Y-42835000D01*
X37557700Y-69033300D02*
X38552100Y-68038900D01*
X37420000Y-69033300D02*
X37557700Y-69033300D01*
X37420000Y-70135000D02*
X37420000Y-69033300D01*
X65496300Y-43954700D02*
X64308400Y-43954700D01*
X66616000Y-42835000D02*
X65496300Y-43954700D01*
X129856800Y-64681300D02*
X127974600Y-66563500D01*
X58724600Y-77132200D02*
X60628400Y-77132200D01*
X129856800Y-61716500D02*
X129856800Y-64681300D01*
X92375400Y-77290600D02*
X92375400Y-77132200D01*
X95731200Y-79519300D02*
X94604100Y-79519300D01*
X101429600Y-73820900D02*
X95731200Y-79519300D01*
X125290700Y-68087800D02*
X125290700Y-68277000D01*
X103692100Y-68639400D02*
X102715900Y-68639400D01*
X101429600Y-69925700D02*
X101429600Y-73820900D01*
X127974600Y-66563500D02*
X126815000Y-66563500D01*
X102715900Y-68639400D02*
X101429600Y-69925700D01*
X94604100Y-79519300D02*
X92375400Y-77290600D01*
X57507700Y-75915300D02*
X58724600Y-77132200D01*
X126815000Y-66563500D02*
X125290700Y-68087800D01*
X58627600Y-75125900D02*
X56726800Y-73225100D01*
X59343900Y-75125900D02*
X58627600Y-75125900D01*
X56726800Y-73225100D02*
X55839100Y-73225100D01*
X91543300Y-81941800D02*
X95130700Y-85529200D01*
X95130700Y-85529200D02*
X95130700Y-86233000D01*
X91543300Y-76376900D02*
X91543300Y-81941800D01*
X59680800Y-106504100D02*
X59680800Y-92684900D01*
X59680800Y-92684900D02*
X56830400Y-89834500D01*
X56957900Y-63764900D02*
X67580000Y-53142800D01*
X67580000Y-53142800D02*
X67580000Y-50455000D01*
X94560600Y-75810500D02*
X94560600Y-77057600D01*
X58728700Y-73371300D02*
X55835800Y-70478400D01*
X94560600Y-77057600D02*
X94962300Y-77459300D01*
X94962300Y-77459300D02*
X94962300Y-78883100D01*
X92121400Y-73371300D02*
X94560600Y-75810500D01*
X58877000Y-73371300D02*
X58728700Y-73371300D01*
X57395600Y-76835100D02*
X60038500Y-79478000D01*
X96133200Y-84745000D02*
X96133200Y-87120100D01*
X92157700Y-80769500D02*
X96133200Y-84745000D01*
X145200000Y-102835000D02*
X145200000Y-101733300D01*
X106558300Y-70455000D02*
X106558300Y-70683300D01*
X97281600Y-79960000D02*
X93588100Y-79960000D01*
X93588100Y-79960000D02*
X92985500Y-79357400D01*
X62767200Y-89283900D02*
X57535000Y-89283900D01*
X123187600Y-91367400D02*
X123187600Y-72977600D01*
X128906300Y-97086100D02*
X123187600Y-91367400D01*
X147341100Y-99592200D02*
X147341100Y-97086100D01*
X107660000Y-70455000D02*
X106558300Y-70455000D01*
X106558300Y-70683300D02*
X97281600Y-79960000D01*
X63938300Y-90455000D02*
X62767200Y-89283900D01*
X145200000Y-101733300D02*
X147341100Y-99592200D01*
X65040000Y-90455000D02*
X63938300Y-90455000D01*
X101478300Y-62835000D02*
X101478300Y-62606700D01*
X65040000Y-51556700D02*
X56348600Y-60248100D01*
X94964400Y-61395200D02*
X92519000Y-58949800D01*
X56348600Y-60248100D02*
X56348600Y-61180300D01*
X65040000Y-50455000D02*
X65040000Y-51556700D01*
X101478300Y-62606700D02*
X100266800Y-61395200D01*
X102580000Y-62835000D02*
X101478300Y-62835000D01*
X100266800Y-61395200D02*
X94964400Y-61395200D01*
X125392700Y-77606000D02*
X125392700Y-70959300D01*
X129260100Y-87275600D02*
X129260100Y-81473400D01*
X125392700Y-70959300D02*
X125217700Y-70784300D01*
X129260100Y-81473400D02*
X125392700Y-77606000D01*
X62227900Y-72532100D02*
X62227900Y-77590200D01*
X95029300Y-76758100D02*
X95955300Y-77684100D01*
X102580000Y-82835000D02*
X102580000Y-81733300D01*
X95029300Y-75384400D02*
X95029300Y-76758100D01*
X102580000Y-81733300D02*
X101307700Y-80461000D01*
X60734200Y-79083900D02*
X60734200Y-79664300D01*
X101307700Y-80461000D02*
X101307700Y-78019100D01*
X60734200Y-79664300D02*
X60320500Y-80078000D01*
X59638300Y-80078000D02*
X57315300Y-77755000D01*
X95955300Y-77684100D02*
X95955300Y-78019100D01*
X60320500Y-80078000D02*
X59638300Y-80078000D01*
X92177000Y-72532100D02*
X95029300Y-75384400D01*
X62227900Y-77590200D02*
X60734200Y-79083900D01*
X70120000Y-110455000D02*
X69792500Y-110782500D01*
X57439700Y-123888900D02*
X69169300Y-112159300D01*
X105120000Y-62835000D02*
X105120000Y-64766300D01*
X93764400Y-106148100D02*
X93764400Y-103939400D01*
X93764400Y-103939400D02*
X91547200Y-101722200D01*
X117624300Y-64766300D02*
X117624300Y-101532400D01*
X69792500Y-111531800D02*
X69169300Y-112155000D01*
X69792500Y-110782500D02*
X69792500Y-111531800D01*
X69169300Y-112155000D02*
X69169300Y-112159300D01*
X83503900Y-64489500D02*
X80738400Y-61724000D01*
X85104900Y-117868100D02*
X85104900Y-88976400D01*
X83503900Y-87375400D02*
X83503900Y-64489500D01*
X100040000Y-110455000D02*
X100040000Y-110775100D01*
X78851000Y-61724000D02*
X77740000Y-62835000D01*
X58933200Y-117868100D02*
X56405000Y-120396300D01*
X85104900Y-88976400D02*
X83503900Y-87375400D01*
X80738400Y-61724000D02*
X78851000Y-61724000D01*
X56405000Y-120396300D02*
X56405000Y-122421500D01*
X100040000Y-110775100D02*
X92947000Y-117868100D01*
X102580000Y-131626100D02*
X102580000Y-131556700D01*
X50811700Y-129570700D02*
X50811700Y-130125300D01*
X83102200Y-65801100D02*
X83102200Y-87541700D01*
X45040000Y-123799000D02*
X50811700Y-129570700D01*
X45040000Y-122835000D02*
X45040000Y-123799000D01*
X101251500Y-139690200D02*
X101251500Y-132954600D01*
X56997000Y-130125300D02*
X60786700Y-133915000D01*
X81510600Y-64209500D02*
X83102200Y-65801100D01*
X60786700Y-133915000D02*
X60786700Y-139690200D01*
X101251500Y-132954600D02*
X102580000Y-131626100D01*
X83102200Y-87541700D02*
X83660100Y-88099600D01*
X102580000Y-130455000D02*
X102580000Y-131556700D01*
X83660100Y-88099600D02*
X83660100Y-139500100D01*
X83660100Y-139500100D02*
X83850200Y-139690200D01*
X58861500Y-120034800D02*
X57667600Y-120034800D01*
X130766600Y-124680900D02*
X130766600Y-127285900D01*
X140190200Y-108819700D02*
X138850000Y-110159900D01*
X98704600Y-130688700D02*
X98203700Y-130688700D01*
X98938300Y-130455000D02*
X98704600Y-130688700D01*
X100040000Y-130455000D02*
X98938300Y-130455000D01*
X57667600Y-120034800D02*
X57407400Y-120295000D01*
X138850000Y-110159900D02*
X138850000Y-116597500D01*
X138850000Y-116597500D02*
X130766600Y-124680900D01*
X59680800Y-120663700D02*
X57283300Y-123061200D01*
X101475500Y-109350500D02*
X95503200Y-109350500D01*
X95503200Y-109350500D02*
X92971000Y-111882700D01*
X59680800Y-111882700D02*
X59680800Y-120663700D01*
X102580000Y-110455000D02*
X101475500Y-109350500D01*
X137580000Y-90455000D02*
X137580000Y-93130600D01*
X137580000Y-93130600D02*
X126810000Y-103900600D01*
X122818500Y-141731800D02*
X122820000Y-141733300D01*
X112740000Y-123936700D02*
X117054300Y-128251000D01*
X112740000Y-122835000D02*
X112740000Y-123936700D01*
X122818500Y-134577100D02*
X122818500Y-141731800D01*
X117054300Y-128812900D02*
X122818500Y-134577100D01*
X117054300Y-128251000D02*
X117054300Y-128812900D01*
X122820000Y-142835000D02*
X122820000Y-141733300D01*
X145200000Y-110455000D02*
X145200000Y-111556700D01*
X143930000Y-112826700D02*
X143930000Y-126572700D01*
X145200000Y-111556700D02*
X143930000Y-112826700D01*
X136212400Y-128624600D02*
X136212400Y-147050900D01*
X128375000Y-153621700D02*
X125630800Y-153621700D01*
X130440000Y-151556700D02*
X128375000Y-153621700D01*
X130440000Y-150455000D02*
X130440000Y-151556700D01*
X69405700Y-144636800D02*
X68988900Y-144220000D01*
X70120000Y-130455000D02*
X70120000Y-131556700D01*
X125630800Y-153621700D02*
X125360700Y-153351600D01*
X68988900Y-132687800D02*
X70120000Y-131556700D01*
X68988900Y-144220000D02*
X68988900Y-132687800D01*
X69405700Y-145431800D02*
X69405700Y-144636800D01*
X118231000Y-75102700D02*
X118226100Y-75097800D01*
X126463000Y-147797900D02*
X126463000Y-131782800D01*
X124199700Y-118055700D02*
X121166500Y-115022500D01*
X121166500Y-115022500D02*
X121166500Y-113890700D01*
X126463000Y-131782800D02*
X124199700Y-129519500D01*
X124199700Y-129519500D02*
X124199700Y-118055700D01*
X133938300Y-70455000D02*
X129295500Y-75097800D01*
X135040000Y-70455000D02*
X133938300Y-70455000D01*
X118231000Y-110955200D02*
X118231000Y-75102700D01*
X129295500Y-75097800D02*
X127536700Y-75097800D01*
X121166500Y-113890700D02*
X118231000Y-110955200D01*
X72660000Y-130455000D02*
X72660000Y-131556700D01*
X71305000Y-132911700D02*
X71305000Y-146292900D01*
X72660000Y-131556700D02*
X71305000Y-132911700D01*
X127900000Y-150455000D02*
X127900000Y-153019900D01*
X71305000Y-146292900D02*
X70920200Y-146677700D01*
X136168400Y-108624600D02*
X136168400Y-117167000D01*
X127164700Y-123302100D02*
X125918000Y-124548800D01*
X131542100Y-148240700D02*
X131173500Y-148609300D01*
X131542100Y-134028300D02*
X131542100Y-148240700D01*
X125918000Y-124548800D02*
X125918000Y-128404200D01*
X136168400Y-117167000D02*
X130033300Y-123302100D01*
X130033300Y-123302100D02*
X127164700Y-123302100D01*
X125918000Y-128404200D02*
X131542100Y-134028300D01*
X108930000Y-111323300D02*
X111556400Y-113949700D01*
X105257700Y-110317300D02*
X106221700Y-110317300D01*
X108930000Y-110090700D02*
X108930000Y-111323300D01*
X105120000Y-110455000D02*
X105257700Y-110317300D01*
X111556400Y-113949700D02*
X111556400Y-123883000D01*
X106221700Y-110317300D02*
X107186700Y-109352300D01*
X108191600Y-109352300D02*
X108930000Y-110090700D01*
X116807500Y-129134100D02*
X116807500Y-137453300D01*
X111556400Y-123883000D02*
X116807500Y-129134100D01*
X107186700Y-109352300D02*
X108191600Y-109352300D01*
X116807500Y-137453300D02*
X114071500Y-140189300D01*
X114071500Y-144699900D02*
X110155600Y-148615800D01*
X114071500Y-140189300D02*
X114071500Y-144699900D01*
X107660000Y-111556700D02*
X108761700Y-112658400D01*
X107660000Y-110455000D02*
X107660000Y-111556700D01*
X114326500Y-127895700D02*
X116405800Y-129975000D01*
X108761700Y-112658400D02*
X108761700Y-123034400D01*
X111390000Y-145476600D02*
X108251900Y-148614700D01*
X113623000Y-127895700D02*
X114326500Y-127895700D01*
X108761700Y-123034400D02*
X113623000Y-127895700D01*
X116405800Y-129975000D02*
X116405800Y-136721200D01*
X116405800Y-136721200D02*
X111390000Y-141737000D01*
X111390000Y-141737000D02*
X111390000Y-145476600D01*
X137580000Y-70455000D02*
X137080800Y-70455000D01*
X137080800Y-70455000D02*
X131103300Y-76432500D01*
X121969900Y-113560200D02*
X121969900Y-113558100D01*
X119409600Y-110431900D02*
X119409600Y-78991700D01*
X125008500Y-116598800D02*
X121969900Y-113560200D01*
X120307100Y-111895300D02*
X120307100Y-111329400D01*
X129006900Y-148181800D02*
X129006900Y-132625000D01*
X120307100Y-111329400D02*
X119409600Y-110431900D01*
X125008600Y-128626700D02*
X125008500Y-128626700D01*
X125008500Y-128626700D02*
X125008500Y-116598800D01*
X131103300Y-76432500D02*
X127497900Y-76432500D01*
X129006900Y-132625000D02*
X125008600Y-128626700D01*
X121969900Y-113558100D02*
X120307100Y-111895300D01*
X125360000Y-138402100D02*
X123711200Y-136753300D01*
X125360000Y-141733300D02*
X125360000Y-138402100D01*
X123711200Y-136753300D02*
X123711200Y-124086200D01*
X123711200Y-124086200D02*
X123597900Y-123972900D01*
X125360000Y-142835000D02*
X125360000Y-141733300D01*
X105349600Y-144650200D02*
X106428700Y-143571100D01*
X106428700Y-142347900D02*
X106717800Y-142058800D01*
X110200000Y-111556700D02*
X117656000Y-119012700D01*
X105349600Y-148615100D02*
X105349600Y-144650200D01*
X117656000Y-119012700D02*
X117656000Y-128563800D01*
X110200000Y-110455000D02*
X110200000Y-111556700D01*
X106717800Y-140011300D02*
X106428700Y-139722200D01*
X106428700Y-139722200D02*
X106428700Y-128639400D01*
X106428700Y-143571100D02*
X106428700Y-142347900D01*
X106717800Y-142058800D02*
X106717800Y-140011300D01*
X103982600Y-139034400D02*
X103982600Y-139599800D01*
X103982600Y-139599800D02*
X106116100Y-141733300D01*
X105275600Y-137731700D02*
X104911600Y-138095700D01*
X104911600Y-138095700D02*
X103726200Y-138095700D01*
X73984100Y-144755700D02*
X73984100Y-132772600D01*
X73984100Y-132772600D02*
X75200000Y-131556700D01*
X75200000Y-130455000D02*
X75200000Y-131556700D01*
X145200000Y-130455000D02*
X145200000Y-131556700D01*
X137332700Y-139424000D02*
X137332700Y-147652700D01*
X145200000Y-131556700D02*
X137332700Y-139424000D01*
X103062400Y-135671700D02*
X103210800Y-135671700D01*
X102187300Y-136546800D02*
X103062400Y-135671700D01*
X75200000Y-81733300D02*
X74098300Y-80631600D01*
X75200000Y-82284100D02*
X75200000Y-81733300D01*
X74098300Y-80631600D02*
X74098300Y-68639000D01*
X85706600Y-141386700D02*
X85706600Y-84116100D01*
X85360000Y-142835000D02*
X85360000Y-141733300D01*
X75200000Y-82284100D02*
X75200000Y-82835000D01*
X85360000Y-141733300D02*
X85706600Y-141386700D01*
X68850000Y-80463300D02*
X68850000Y-68625900D01*
X67580000Y-81733300D02*
X68850000Y-80463300D01*
X82820000Y-141733300D02*
X82650700Y-141564000D01*
X67580000Y-82835000D02*
X67580000Y-81733300D01*
X82820000Y-142835000D02*
X82820000Y-141733300D01*
X82650700Y-141564000D02*
X82650700Y-87941100D01*
X112740000Y-103936700D02*
X117829300Y-109026000D01*
X101141700Y-132429100D02*
X101141700Y-128620300D01*
X117829300Y-111121500D02*
X120764800Y-114057000D01*
X112740000Y-102835000D02*
X112740000Y-103936700D01*
X99574400Y-147154900D02*
X99574400Y-133996400D01*
X99574400Y-133996400D02*
X101141700Y-132429100D01*
X120764800Y-114057000D02*
X120764800Y-124619700D01*
X117829300Y-109026000D02*
X117829300Y-111121500D01*
X101478300Y-122835000D02*
X101478300Y-123048900D01*
X101478300Y-123048900D02*
X97681000Y-126846200D01*
X102580000Y-122835000D02*
X101478300Y-122835000D01*
X89332100Y-126846200D02*
X89332100Y-145837000D01*
X117427600Y-110062600D02*
X117427600Y-111287800D01*
X110200000Y-102835000D02*
X117427600Y-110062600D01*
X123220200Y-140159400D02*
X124090000Y-141029200D01*
X118529100Y-112389300D02*
X118529100Y-123266900D01*
X118529100Y-123266900D02*
X123220200Y-127958000D01*
X124090000Y-141029200D02*
X124090000Y-145684100D01*
X124090000Y-145684100D02*
X125417100Y-147011200D01*
X117427600Y-111287800D02*
X118529100Y-112389300D01*
X123220200Y-127958000D02*
X123220200Y-140159400D01*
X96140900Y-148539400D02*
X96106400Y-148573900D01*
X99291000Y-128621200D02*
X96140900Y-131771300D01*
X96140900Y-131771300D02*
X96140900Y-148539400D01*
X99569500Y-128621200D02*
X99291000Y-128621200D01*
X93881400Y-46577100D02*
X91781300Y-46577100D01*
X91781300Y-46577100D02*
X86313400Y-52045000D01*
X110200000Y-50455000D02*
X110200000Y-62835000D01*
X86313400Y-52045000D02*
X86313400Y-122835000D01*
X92582900Y-123953900D02*
X94859800Y-121677000D01*
X73930000Y-83124000D02*
X79679700Y-88873700D01*
X81384200Y-89957700D02*
X81384200Y-96929200D01*
X73930000Y-82303700D02*
X73930000Y-83124000D01*
X80300200Y-88873700D02*
X81384200Y-89957700D01*
X79679700Y-88873700D02*
X80300200Y-88873700D01*
X81384200Y-96929200D02*
X78401500Y-99911900D01*
X72660000Y-81033700D02*
X73930000Y-82303700D01*
X72660000Y-70455000D02*
X72660000Y-81033700D01*
X81785900Y-102887200D02*
X80705600Y-103967500D01*
X81647200Y-75463900D02*
X81647200Y-88356600D01*
X80705600Y-103967500D02*
X74665900Y-103967500D01*
X77740000Y-71556700D02*
X81647200Y-75463900D01*
X72660000Y-102835000D02*
X73761700Y-102835000D01*
X77740000Y-70455000D02*
X77740000Y-71556700D01*
X81785900Y-88495300D02*
X81785900Y-102887200D01*
X81647200Y-88356600D02*
X81785900Y-88495300D01*
X73761700Y-103063300D02*
X73761700Y-102835000D01*
X74665900Y-103967500D02*
X73761700Y-103063300D01*
X71481100Y-95457800D02*
X71481100Y-105898900D01*
X67580000Y-91556700D02*
X71481100Y-95457800D01*
X67580000Y-90455000D02*
X67580000Y-91556700D01*
X67580000Y-102835000D02*
X67580000Y-101733300D01*
X70120000Y-71556700D02*
X71479500Y-72916200D01*
X71479500Y-72916200D02*
X71479500Y-87121700D01*
X66459700Y-100613000D02*
X66459700Y-88616900D01*
X70120000Y-70455000D02*
X70120000Y-71556700D01*
X67580000Y-101733300D02*
X66459700Y-100613000D01*
X77740000Y-90455000D02*
X77740000Y-102835000D01*
X77184400Y-111566000D02*
X80746400Y-111566000D01*
X76073400Y-110455000D02*
X77184400Y-111566000D01*
X80746400Y-111566000D02*
X82199200Y-110113200D01*
X82048900Y-88190300D02*
X82048900Y-65705600D01*
X82199200Y-88340600D02*
X82048900Y-88190300D01*
X75200000Y-110455000D02*
X76073400Y-110455000D01*
X80280000Y-63936700D02*
X80280000Y-62835000D01*
X82199200Y-110113200D02*
X82199200Y-88340600D01*
X82048900Y-65705600D02*
X80280000Y-63936700D01*
X70120000Y-91556700D02*
X75200000Y-96636700D01*
X70120000Y-90455000D02*
X70120000Y-91556700D01*
X75200000Y-96636700D02*
X75200000Y-102835000D01*
X107660000Y-42835000D02*
X106558300Y-42835000D01*
X98922800Y-43947100D02*
X105674500Y-43947100D01*
X106558300Y-43063300D02*
X106558300Y-42835000D01*
X105674500Y-43947100D02*
X106558300Y-43063300D01*
X84105700Y-82454400D02*
X84105700Y-42963800D01*
X97939500Y-42963800D02*
X98922800Y-43947100D01*
X92770600Y-93072300D02*
X95664400Y-95966100D01*
X128890600Y-100039900D02*
X123884100Y-95033400D01*
X117222600Y-68076900D02*
X113482850Y-64337150D01*
X116003200Y-95966100D02*
X117222600Y-94746700D01*
X141548900Y-112667800D02*
X141548900Y-127293100D01*
X142660000Y-111556700D02*
X141548900Y-112667800D01*
X112740000Y-62835000D02*
X113482850Y-63577850D01*
X113482850Y-63577850D02*
X113482850Y-64337150D01*
X117222600Y-94746700D02*
X117222600Y-68076900D01*
X92538100Y-93072300D02*
X92770600Y-93072300D01*
X128890600Y-100967600D02*
X128890600Y-100039900D01*
X142660000Y-110455000D02*
X142660000Y-111556700D01*
X122240500Y-105851300D02*
X128356200Y-111967000D01*
X122240500Y-102904600D02*
X122240500Y-105851300D01*
X91564500Y-90533600D02*
X97120900Y-96090000D01*
X97120900Y-96090000D02*
X97120900Y-100929900D01*
X128356200Y-111967000D02*
X128882400Y-111967000D01*
X95426700Y-97627800D02*
X95426700Y-107277300D01*
X91725400Y-93926500D02*
X95426700Y-97627800D01*
X121450300Y-93451900D02*
X121450300Y-77105500D01*
X128788200Y-109392900D02*
X126918100Y-109392900D01*
X97244700Y-77105500D02*
X97244700Y-75897900D01*
X128946400Y-109234700D02*
X128788200Y-109392900D01*
X97244700Y-75897900D02*
X92569400Y-71222600D01*
X125846100Y-97847700D02*
X121450300Y-93451900D01*
X126918100Y-109392900D02*
X125846100Y-108320900D01*
X125846100Y-108320900D02*
X125846100Y-97847700D01*
X94782700Y-59162400D02*
X100040000Y-53905100D01*
X92628700Y-58104400D02*
X93686700Y-59162400D01*
X93686700Y-59162400D02*
X94782700Y-59162400D01*
X100040000Y-53905100D02*
X100040000Y-50455000D01*
X92059100Y-58104400D02*
X92628700Y-58104400D01*
X72660000Y-42835000D02*
X72660000Y-43936700D01*
X75675400Y-46952100D02*
X75675400Y-47288700D01*
X72660000Y-43936700D02*
X75675400Y-46952100D01*
X76470000Y-52826700D02*
X76470000Y-66645700D01*
X131904500Y-81725400D02*
X126498700Y-76319600D01*
X75200000Y-51556700D02*
X76470000Y-52826700D01*
X75200000Y-50455000D02*
X75200000Y-51556700D01*
X91557300Y-71061500D02*
X91557300Y-69376600D01*
X131904500Y-87289400D02*
X131904500Y-81725400D01*
X95665700Y-75169900D02*
X91557300Y-71061500D01*
X95665700Y-76491100D02*
X95665700Y-75169900D01*
X75200000Y-43799000D02*
X83179600Y-51778600D01*
X91968400Y-63247700D02*
X94903000Y-66182300D01*
X83179600Y-51778600D02*
X83179600Y-63247700D01*
X75200000Y-42835000D02*
X75200000Y-43799000D01*
X94903000Y-66182300D02*
X94903000Y-67278100D01*
X94578400Y-53571400D02*
X94578400Y-57115900D01*
X126190300Y-57115900D02*
X129978300Y-60903900D01*
X92172000Y-51165000D02*
X94578400Y-53571400D01*
X116817500Y-68569700D02*
X116817500Y-90505100D01*
X116817500Y-90505100D02*
X115736500Y-91586100D01*
X114380000Y-66132200D02*
X116817500Y-68569700D01*
X115736500Y-91586100D02*
X114744500Y-91586100D01*
X95504700Y-65783800D02*
X91399500Y-61678600D01*
X112740000Y-90455000D02*
X113641700Y-90455000D01*
X91399500Y-56544400D02*
X91565800Y-56378100D01*
X114744500Y-91586100D02*
X113841700Y-90683300D01*
X113841700Y-90683300D02*
X113841700Y-90655000D01*
X113641700Y-90455000D02*
X113841700Y-90655000D01*
X95504700Y-66132200D02*
X95504700Y-65783800D01*
X91399500Y-61678600D02*
X91399500Y-56544400D01*
X91925200Y-49551200D02*
X95374500Y-53000500D01*
X95374500Y-53000500D02*
X95374500Y-57719800D01*
X91961500Y-55890900D02*
X91961500Y-52009700D01*
X94242200Y-58560600D02*
X94242200Y-58171600D01*
X94242200Y-58171600D02*
X91961500Y-55890900D01*
X109025300Y-50067000D02*
X110455400Y-48636900D01*
X112258500Y-71640100D02*
X115708400Y-71640100D01*
X111073400Y-70455000D02*
X112258500Y-71640100D01*
X114895600Y-68449400D02*
X114204500Y-68449400D01*
X115708400Y-71640100D02*
X116415800Y-70932700D01*
X116415800Y-69969600D02*
X114895600Y-68449400D01*
X110200000Y-70455000D02*
X111073400Y-70455000D01*
X109025300Y-63270200D02*
X109025300Y-50067000D01*
X116415800Y-70932700D02*
X116415800Y-69969600D01*
X114204500Y-68449400D02*
X109025300Y-63270200D01*
X122541400Y-95111000D02*
X122188900Y-94758500D01*
X122909500Y-105952300D02*
X122909500Y-102722700D01*
X122188900Y-94758500D02*
X122113500Y-94758500D01*
X122113500Y-94758500D02*
X121048600Y-93693600D01*
X121048600Y-77885800D02*
X120731500Y-77568700D01*
X135040000Y-110455000D02*
X127412200Y-110455000D01*
X121048600Y-93693600D02*
X121048600Y-77885800D01*
X127412200Y-110455000D02*
X122909500Y-105952300D01*
X122909500Y-102722700D02*
X122541400Y-102354600D01*
X122541400Y-102354600D02*
X122541400Y-95111000D01*
X120731500Y-77568700D02*
X120731500Y-55918800D01*
X124830600Y-72020500D02*
X124830600Y-87357700D01*
X124261100Y-52295000D02*
X124261100Y-71451000D01*
X124261100Y-71451000D02*
X124830600Y-72020500D01*
X124830600Y-87357700D02*
X127927900Y-90455000D01*
X127927900Y-90455000D02*
X135040000Y-90455000D01*
X124601400Y-129070400D02*
X124601400Y-117323500D01*
X106754700Y-47009700D02*
X104312800Y-44567800D01*
X121568200Y-114290300D02*
X121568200Y-113724400D01*
X118827800Y-75346900D02*
X118827800Y-55110800D01*
X124804900Y-129273900D02*
X124601400Y-129070400D01*
X118632700Y-110788900D02*
X118632700Y-75542000D01*
X117007300Y-53290300D02*
X117007300Y-50606300D01*
X117007300Y-50606300D02*
X113410700Y-47009700D01*
X118827800Y-55110800D02*
X117007300Y-53290300D01*
X113410700Y-47009700D02*
X106754700Y-47009700D01*
X124601400Y-117323500D02*
X121568200Y-114290300D01*
X121568200Y-113724400D02*
X118632700Y-110788900D01*
X118632700Y-75542000D02*
X118827800Y-75346900D01*
X120213000Y-106682500D02*
X119989100Y-106458600D01*
X120213000Y-110667300D02*
X120213000Y-106682500D01*
X119989100Y-100530500D02*
X120118300Y-100401300D01*
X120118300Y-78091600D02*
X119229500Y-77202800D01*
X129748600Y-120768800D02*
X120708800Y-111729000D01*
X120708800Y-111729000D02*
X120708800Y-111163100D01*
X120118300Y-100401300D02*
X120118300Y-78091600D01*
X120708800Y-111163100D02*
X120213000Y-110667300D01*
X129748600Y-122700400D02*
X129748600Y-120768800D01*
X119229500Y-77202800D02*
X119229500Y-54222400D01*
X119989100Y-106458600D02*
X119989100Y-100530500D01*
X128971400Y-68631300D02*
X127001700Y-70601000D01*
X150280000Y-62835000D02*
X150280000Y-63936700D01*
X149296300Y-67347100D02*
X149296300Y-64920400D01*
X149296300Y-64920400D02*
X150280000Y-63936700D01*
X127001700Y-70601000D02*
X127001700Y-71558000D01*
X129104600Y-52028700D02*
X125274600Y-55858700D01*
X125274600Y-55858700D02*
X125274600Y-66976700D01*
X103945500Y-118018800D02*
X103945500Y-108635300D01*
X107660000Y-121733300D02*
X103945500Y-118018800D01*
X107660000Y-122835000D02*
X107660000Y-121733300D01*
X110346000Y-103936700D02*
X116407900Y-109998600D01*
X105120000Y-102835000D02*
X106083900Y-102835000D01*
X116407900Y-110836100D02*
X118127400Y-112555600D01*
X118127400Y-128112500D02*
X118433200Y-128418300D01*
X118433200Y-128418300D02*
X118433200Y-129318500D01*
X118127400Y-112555600D02*
X118127400Y-128112500D01*
X116407900Y-109998600D02*
X116407900Y-110836100D01*
X107185600Y-103936700D02*
X110346000Y-103936700D01*
X106083900Y-102835000D02*
X107185600Y-103936700D01*
X130630200Y-120516500D02*
X120865400Y-110751700D01*
X120614700Y-107929800D02*
X120614700Y-102835000D01*
X120865400Y-108180500D02*
X120614700Y-107929800D01*
X120865400Y-110751700D02*
X120865400Y-108180500D01*
X130630200Y-121721000D02*
X130630200Y-120516500D01*
X152140000Y-69574200D02*
X152140000Y-133001100D01*
M02*
